<svg xmlns="http://www.w3.org/2000/svg" xmlns:xlink="http://www.w3.org/1999/xlink" viewBox="0 0 78.5 35.71"><defs><style>.cls-1{isolation:isolate;}.cls-2{fill:url(#linear-gradient);}.cls-3,.cls-4,.cls-5,.cls-6{mix-blend-mode:screen;}.cls-3{fill:url(#linear-gradient-2);}.cls-4{fill:url(#linear-gradient-3);}.cls-5{fill:url(#linear-gradient-4);}.cls-6{fill:url(#linear-gradient-5);}</style><linearGradient id="linear-gradient" x1="39.25" y1="6.97" x2="39.25" y2="36.17" gradientUnits="userSpaceOnUse"><stop offset="0" stop-color="#99e8ff"/><stop offset="0.28" stop-color="#96e6ff"/><stop offset="0.48" stop-color="#8de0ff"/><stop offset="0.65" stop-color="#7dd5ff"/><stop offset="0.81" stop-color="#67c6ff"/><stop offset="0.96" stop-color="#4bb3ff"/><stop offset="1" stop-color="#42adff"/></linearGradient><linearGradient id="linear-gradient-2" x1="8.22" y1="15.83" x2="8.22" y2="25.83" gradientUnits="userSpaceOnUse"><stop offset="0" stop-color="#fff"/><stop offset="1"/></linearGradient><linearGradient id="linear-gradient-3" x1="48.78" y1="12.57" x2="48.78" y2="22.56" xlink:href="#linear-gradient-2"/><linearGradient id="linear-gradient-4" x1="67.26" y1="12.07" x2="67.26" y2="23.52" xlink:href="#linear-gradient-2"/><linearGradient id="linear-gradient-5" x1="26.37" y1="2.13" x2="27.09" y2="18.06" xlink:href="#linear-gradient-2"/></defs><title>Asset 16</title><g class="cls-1"><g id="Layer_2" data-name="Layer 2"><g id="weather"><path class="cls-2" d="M14.62,16.14c-7.25-19,29-24.19,25.28.78,1.56-8.28,16.76-10.56,17.72-.53,1-14.5,30.46-8.91,17.66,11.16-6.16,9.67-66.92,11.71-73.52.83C-4.44,18.16,7.12,9.14,14.62,16.14Z"/><path class="cls-3" d="M1.67,21.25c-.81,8,10.65,7.14,9.7,1.39-.53-3.16-5.53-3.34-4.86.38C7.82,20.27,11,24.63,7,24.56c-2.5,0-2.87-3-1.41-4.63,3.61-4,9.62.7,6.41,6.17A5.3,5.3,0,0,0,14.63,20,5.48,5.48,0,0,0,10,15.71C7.62,15.62,2.17,16.2,1.67,21.25Z"/><path class="cls-4" d="M42.23,18c-.81,8,10.65,7.14,9.69,1.39-.52-3.16-5.52-3.34-4.85.38,1.31-2.75,4.45,1.62.45,1.54-2.51,0-2.88-3-1.41-4.63,3.6-4,9.61.7,6.4,6.17a5.29,5.29,0,0,0,2.68-6.1,5.45,5.45,0,0,0-4.67-4.28C48.18,12.35,42.74,12.93,42.23,18Z"/><path class="cls-5" d="M59.75,18.27c-.92,9.19,12.22,8.19,11.12,1.6-.61-3.62-6.34-3.84-5.56.43,1.49-3.15,5.1,1.85.5,1.76-2.86,0-3.29-3.45-1.61-5.3,4.12-4.54,11,.8,7.34,7.07a6.09,6.09,0,0,0,3.07-7c-.89-3.11-3.24-4.81-5.35-4.9C66.58,11.81,60.34,12.48,59.75,18.27Z"/><path class="cls-6" d="M16.89,10.71C15.68,22.82,33,21.49,31.54,12.81c-.79-4.78-8.35-5.05-7.33.57,2-4.15,6.73,2.44.67,2.33-3.78-.06-4.35-4.56-2.13-7,5.44-6,14.53,1.06,9.68,9.32a8,8,0,0,0,4-9.22c-1.16-4.1-4.28-6.34-7-6.46C25.9,2.19,17.66,3.08,16.89,10.71Z"/></g></g></g></svg>