<svg xmlns="http://www.w3.org/2000/svg" xmlns:xlink="http://www.w3.org/1999/xlink" viewBox="0 0 79.48 67.09"><defs><style>.cls-1{isolation:isolate;}.cls-2{fill:url(#radial-gradient);}.cls-3{fill:url(#radial-gradient-2);}.cls-4{fill:url(#radial-gradient-3);}.cls-5{fill:url(#radial-gradient-4);}.cls-6{fill:url(#radial-gradient-5);}.cls-7{fill:url(#radial-gradient-6);}.cls-8{fill:url(#radial-gradient-7);}.cls-9{fill:url(#radial-gradient-8);}.cls-10{fill:url(#radial-gradient-9);}.cls-11{fill:url(#radial-gradient-10);}.cls-12{fill:url(#radial-gradient-11);}.cls-13{fill:url(#radial-gradient-12);}.cls-14{fill:url(#radial-gradient-13);}.cls-15{mix-blend-mode:screen;fill:url(#linear-gradient);}</style><radialGradient id="radial-gradient" cx="31.67" cy="21.04" r="8.73" gradientTransform="translate(6.29 -8.74) rotate(-1.81)" gradientUnits="userSpaceOnUse"><stop offset="0" stop-color="#ffca00"/><stop offset="0.41" stop-color="#ffc800"/><stop offset="0.6" stop-color="#ffc000"/><stop offset="0.75" stop-color="#ffb400"/><stop offset="0.87" stop-color="#fea200"/><stop offset="0.97" stop-color="#fe8a00"/><stop offset="1" stop-color="#fe8300"/></radialGradient><radialGradient id="radial-gradient-2" cx="19.78" cy="25.79" r="9.34" xlink:href="#radial-gradient"/><radialGradient id="radial-gradient-3" cx="8.45" cy="36.59" r="9.45" xlink:href="#radial-gradient"/><radialGradient id="radial-gradient-4" cx="3.43" cy="49.74" r="8.73" xlink:href="#radial-gradient"/><radialGradient id="radial-gradient-5" cx="8.18" cy="61.63" r="9.34" xlink:href="#radial-gradient"/><radialGradient id="radial-gradient-6" cx="18.99" cy="72.96" r="9.45" xlink:href="#radial-gradient"/><radialGradient id="radial-gradient-7" cx="32.13" cy="77.98" r="8.73" xlink:href="#radial-gradient"/><radialGradient id="radial-gradient-8" cx="44.02" cy="73.23" r="9.34" xlink:href="#radial-gradient"/><radialGradient id="radial-gradient-9" cx="55.36" cy="62.43" r="9.45" xlink:href="#radial-gradient"/><radialGradient id="radial-gradient-10" cx="60.37" cy="49.28" r="8.73" xlink:href="#radial-gradient"/><radialGradient id="radial-gradient-11" cx="55.62" cy="37.39" r="9.34" xlink:href="#radial-gradient"/><radialGradient id="radial-gradient-12" cx="44.82" cy="26.05" r="9.45" xlink:href="#radial-gradient"/><radialGradient id="radial-gradient-13" cx="33.36" cy="44.64" r="18.98" gradientTransform="translate(6.29 -8.74) rotate(-1.81)" gradientUnits="userSpaceOnUse"><stop offset="0" stop-color="#ffca00"/><stop offset="0.27" stop-color="#ffc600"/><stop offset="0.53" stop-color="#fb0"/><stop offset="0.78" stop-color="#fea800"/><stop offset="1" stop-color="#fe9000"/></radialGradient><linearGradient id="linear-gradient" x1="33.02" y1="31.38" x2="31.33" y2="48.16" gradientTransform="translate(6.29 -8.74) rotate(-1.81)" gradientUnits="userSpaceOnUse"><stop offset="0" stop-color="#e0cc4e"/><stop offset="0.14" stop-color="#ac9d3c"/><stop offset="0.3" stop-color="#786d2a"/><stop offset="0.46" stop-color="#4d461b"/><stop offset="0.61" stop-color="#2b280f"/><stop offset="0.75" stop-color="#131207"/><stop offset="0.89" stop-color="#050502"/><stop offset="1"/></linearGradient></defs><title>Asset 17</title><g class="cls-1"><g id="Layer_2" data-name="Layer 2"><g id="weather"><path class="cls-2" d="M35.32,22.68s-3.55-4,.27-10.17c2.28-3.66,6-8,3-12.51,4.77,4.34,4.74,8.08,2.52,13.53C39.32,18.05,44,22.34,44,22.34Z"/><path class="cls-3" d="M27.38,27.18s-5.08-1.73-4.85-8.95c.14-4.31,1.24-9.92-3.61-12.35,6.3,1.37,8.14,4.62,8.94,10.45.67,4.83,6.85,6.22,6.85,6.22Z"/><path class="cls-4" d="M22.76,35s-5.27,1.05-8.68-5.33c-2-3.8-3.88-9.2-9.31-8.89,6.15-2,9.37-.06,13,4.59,3,3.85,9,2,9,2Z"/><path class="cls-5" d="M22.68,44.16s-4,3.54-10.17-.28c-3.66-2.27-8-6-12.51-3,4.34-4.77,8.08-4.74,13.53-2.52,4.51,1.84,8.81-2.82,8.81-2.82Z"/><path class="cls-6" d="M27.18,52.1s-1.72,5.08-8.95,4.84c-4.31-.13-9.91-1.23-12.35,3.62,1.36-6.3,4.62-8.14,10.45-8.94,4.83-.67,6.22-6.85,6.22-6.85Z"/><path class="cls-7" d="M27.83,66.35c.65-.32,1.28-.63,1.88-.95,6.38-3.41,5.34-8.68,5.34-8.68l-7.68-4s1.89,6.05-2,9a15.88,15.88,0,0,0-4.32,4.61C23.33,66.25,25.59,66.29,27.83,66.35Z"/><path class="cls-8" d="M38.32,66c-.1.25-.19.49-.28.74l5.91.17c3.71-6.08.21-10.06.21-10.06l-8.66.35S40.16,61.43,38.32,66Z"/><path class="cls-9" d="M51.61,63.15a22,22,0,0,0,.86,3.91l1.51,0c.86-.08,1.72-.14,2.58-.23l.21,0c-.09-1.88.12-3.84.18-5.59.24-7.23-4.85-9-4.85-9l-7.33,4.63S51,58.32,51.61,63.15Z"/><path class="cls-10" d="M56.72,44.44s5.27-1,8.68,5.33c2,3.8,3.88,9.2,9.31,8.88-6.14,2-9.37.07-13-4.58-3-3.85-9-2-9-2Z"/><path class="cls-11" d="M56.8,35.31s4-3.54,10.18.28c3.66,2.28,8,6,12.5,3-4.33,4.77-8.07,4.74-13.53,2.52-4.52-1.84-8.8,2.82-8.8,2.82Z"/><path class="cls-12" d="M52.3,27.38s1.73-5.09,9-4.85c4.31.14,9.92,1.24,12.35-3.61-1.36,6.3-4.62,8.14-10.45,8.94-4.84.67-6.22,6.85-6.22,6.85Z"/><path class="cls-13" d="M44.44,22.75s-1-5.26,5.33-8.67c3.8-2,9.2-3.88,8.88-9.31,2,6.14.07,9.37-4.58,13-3.85,3-2,9-2,9Z"/><path class="cls-14" d="M58.71,39.14A19,19,0,1,0,40.34,58.71,19,19,0,0,0,58.71,39.14Z"/><path class="cls-15" d="M52.49,33c-.17-5.63-6.14-10-13.34-9.79s-12.88,5-12.71,10.6,6.16,10,13.35,9.8S52.67,38.64,52.49,33Z"/></g></g></g></svg>