<svg xmlns="http://www.w3.org/2000/svg" xmlns:xlink="http://www.w3.org/1999/xlink" viewBox="0 0 83.11 54.35"><defs><style>.cls-1{isolation:isolate;}.cls-2{fill:url(#linear-gradient);}.cls-10,.cls-11,.cls-12,.cls-3,.cls-4,.cls-5,.cls-6,.cls-8,.cls-9{mix-blend-mode:screen;}.cls-3{fill:url(#linear-gradient-2);}.cls-4{fill:url(#linear-gradient-3);}.cls-5{fill:url(#linear-gradient-4);}.cls-6{fill:url(#linear-gradient-5);}.cls-7{fill:url(#linear-gradient-6);}.cls-8{fill:url(#linear-gradient-7);}.cls-9{fill:url(#linear-gradient-8);}.cls-10{fill:url(#linear-gradient-9);}.cls-11{fill:url(#linear-gradient-10);}.cls-12{fill:url(#linear-gradient-11);}</style><linearGradient id="linear-gradient" x1="50.55" y1="7.33" x2="50.55" y2="30.37" gradientTransform="translate(1.8 -4.68) rotate(4.09)" gradientUnits="userSpaceOnUse"><stop offset="0" stop-color="#c7f6ff"/><stop offset="0.19" stop-color="#c3f4ff"/><stop offset="0.37" stop-color="#b7edff"/><stop offset="0.56" stop-color="#a3e2ff"/><stop offset="0.75" stop-color="#87d2ff"/><stop offset="0.93" stop-color="#63beff"/><stop offset="1" stop-color="#54b5ff"/></linearGradient><linearGradient id="linear-gradient-2" x1="44.84" y1="-19.2" x2="44.84" y2="-10.42" gradientTransform="translate(28.08 15.99) rotate(20.06)" gradientUnits="userSpaceOnUse"><stop offset="0" stop-color="#fff"/><stop offset="1"/></linearGradient><linearGradient id="linear-gradient-3" x1="-0.11" y1="-3.78" x2="-0.11" y2="5" xlink:href="#linear-gradient-2"/><linearGradient id="linear-gradient-4" x1="27.95" y1="-24.59" x2="27.95" y2="-12.97" xlink:href="#linear-gradient-2"/><linearGradient id="linear-gradient-5" x1="11.78" y1="-15.19" x2="11.78" y2="-3.56" xlink:href="#linear-gradient-2"/><linearGradient id="linear-gradient-6" x1="41.37" y1="24.68" x2="41.37" y2="54.83" gradientUnits="userSpaceOnUse"><stop offset="0" stop-color="#99e8ff"/><stop offset="0.28" stop-color="#96e6ff"/><stop offset="0.48" stop-color="#8de0ff"/><stop offset="0.65" stop-color="#7dd5ff"/><stop offset="0.81" stop-color="#67c6ff"/><stop offset="0.96" stop-color="#4bb3ff"/><stop offset="1" stop-color="#42adff"/></linearGradient><linearGradient id="linear-gradient-7" x1="8.41" y1="30.89" x2="8.41" y2="39.25" gradientTransform="matrix(1, 0, 0, 1, 0, 0)" xlink:href="#linear-gradient-2"/><linearGradient id="linear-gradient-8" x1="41.35" y1="27.61" x2="41.35" y2="35.97" gradientTransform="matrix(1, 0, 0, 1, 0, 0)" xlink:href="#linear-gradient-2"/><linearGradient id="linear-gradient-9" x1="50.4" y1="-2.81" x2="50.4" y2="5.74" gradientTransform="translate(27.09 18.89) rotate(15.96)" xlink:href="#linear-gradient-2"/><linearGradient id="linear-gradient-10" x1="58.14" y1="22.85" x2="58.14" y2="32.43" gradientTransform="matrix(1, 0, 0, 1, 0, 0)" xlink:href="#linear-gradient-2"/><linearGradient id="linear-gradient-11" x1="23.17" y1="20.13" x2="23.77" y2="33.46" gradientTransform="matrix(1, 0, 0, 1, 0, 0)" xlink:href="#linear-gradient-2"/></defs><title>Asset 14</title><g class="cls-1"><g id="Layer_2" data-name="Layer 2"><g id="weather"><path class="cls-2" d="M21,24.08C12.28,12.73,28.49,5.69,33.2,12.33,31.71,4.4,46.43-1.5,51.1,9.34,49.87-2.44,71.62-5,68.69,12.89c9.77-8.09,22.41,8.67,7.74,16.46C64.65,35.6,29.13,34.7,21,24.08Z"/><path class="cls-3" d="M70.17,15.94c-2.76,6.3,6.09,9.08,6.92,4.1.45-2.74-3.26-4.42-3.75-1.18,1.72-1.84,2.91,2.68-.09,1.4-1.86-.8-1.35-3.34.19-4.21,3.77-2.14,7,3.5,3.16,7a4.37,4.37,0,0,0,3.65-4.17,5.81,5.81,0,0,0-3-5.45A4.88,4.88,0,0,0,70.17,15.94Z"/><path class="cls-4" d="M22.66,15c-2.76,6.3,6.09,9.07,6.92,4.09.45-2.74-3.26-4.42-3.75-1.17,1.72-1.85,2.91,2.67-.09,1.39-1.87-.8-1.35-3.34.19-4.21,3.77-2.13,7,3.51,3.16,7A4.37,4.37,0,0,0,32.74,18a5.82,5.82,0,0,0-3-5.46A4.88,4.88,0,0,0,22.66,15Z"/><path class="cls-5" d="M54,5.93c-3.65,8.34,8.06,12,9.15,5.42.6-3.62-4.31-5.84-5-1.55,2.28-2.45,3.86,3.54-.11,1.84-2.47-1.05-1.79-4.42.24-5.57,5-2.83,9.33,4.64,4.19,9.25,3-.32,4.69-3.23,4.83-5.51a7.69,7.69,0,0,0-4-7.21C61.13,1.39,56.31.68,54,5.93Z"/><path class="cls-6" d="M35.59,9.23c-3.64,8.33,8.07,12,9.16,5.41.6-3.62-4.31-5.84-5-1.55,2.28-2.44,3.86,3.54-.1,1.85-2.47-1.06-1.79-4.43.24-5.57,5-2.83,9.32,4.63,4.18,9.25,3-.33,4.69-3.24,4.84-5.52a7.73,7.73,0,0,0-4-7.22C42.71,4.68,37.89,4,35.59,9.23Z"/><path class="cls-7" d="M14,31.11C5.82,16.46,37.25,9.87,34.2,30.76c1.3-6.93,14-7.42,14.81,1-2.61-13.37,20.64-15.87,18.89.13,4.5-8,19.33-3.48,13.5,10.25-3.5,8.25-18.17,12.25-39.5,12.25-21,0-34.53-3.48-40.33-12.5C-4.43,32.52,8.33,23.83,14,31.11Z"/><path class="cls-8" d="M3,35.42c-.67,6.71,8.88,6,8.08,1.17-.44-2.64-4.61-2.8-4,.31,1.09-2.3,3.71,1.35.36,1.3-2.08,0-2.39-2.53-1.17-3.88,3-3.32,8,.58,5.34,5.16a4.43,4.43,0,0,0,2.23-5.11,4.56,4.56,0,0,0-3.89-3.58C7.91,30.71,3.37,31.2,3,35.42Z"/><path class="cls-9" d="M35.89,32.15c-.68,6.7,8.88,6,8.08,1.16-.44-2.64-4.6-2.8-4,.31,1.09-2.3,3.71,1.36.37,1.29-2.09,0-2.41-2.52-1.18-3.87,3-3.32,8,.59,5.34,5.16a4.42,4.42,0,0,0,2.23-5.1,4.56,4.56,0,0,0-3.89-3.59C40.85,27.43,36.31,27.92,35.89,32.15Z"/><path class="cls-10" d="M69.76,33.07c-2.43,6.26,6.95,8.28,7.46,3.43.28-2.66-3.69-4-4-.85,1.66-1.9,3.21,2.36,0,1.35-2-.64-1.64-3.12-.1-4.07,3.76-2.32,7.55,2.86,3.77,6.49a4.32,4.32,0,0,0,3.49-4.27,5.56,5.56,0,0,0-3.51-5C75.09,29.38,71.28,29.13,69.76,33.07Z"/><path class="cls-11" d="M51.89,28c-.77,7.69,10.18,6.85,9.26,1.34-.5-3-5.28-3.21-4.64.36,1.25-2.64,4.26,1.55.43,1.48-2.39,0-2.75-2.9-1.35-4.45,3.44-3.79,9.19.68,6.12,5.92a5.09,5.09,0,0,0,2.56-5.85,5.21,5.21,0,0,0-4.46-4.1C57.58,22.64,52.37,23.2,51.89,28Z"/><path class="cls-12" d="M15.26,27.31c-1,10.14,13.42,9,12.22,1.75-.66-4-7-4.22-6.12.48,1.66-3.47,5.62,2.05.56,2-3.15-.06-3.62-3.82-1.77-5.86,4.54-5,12.11.89,8.07,7.8a6.71,6.71,0,0,0,3.37-7.72c-1-3.43-3.56-5.31-5.88-5.4C22.77,20.19,15.91,20.93,15.26,27.31Z"/></g></g></g></svg>