<svg xmlns="http://www.w3.org/2000/svg" xmlns:xlink="http://www.w3.org/1999/xlink" viewBox="0 0 78.44 69.6"><defs><style>.cls-1{isolation:isolate;}.cls-2{fill:url(#linear-gradient);}.cls-10,.cls-11,.cls-12,.cls-13,.cls-3,.cls-4,.cls-5,.cls-6,.cls-8{mix-blend-mode:screen;}.cls-3{fill:url(#linear-gradient-2);}.cls-4{fill:url(#linear-gradient-3);}.cls-5{fill:url(#linear-gradient-4);}.cls-6{fill:url(#linear-gradient-5);}.cls-7{fill:url(#radial-gradient);}.cls-8{fill:url(#linear-gradient-6);}.cls-9{fill:url(#linear-gradient-7);}.cls-10{fill:url(#linear-gradient-8);}.cls-11{fill:url(#linear-gradient-9);}.cls-12{fill:url(#linear-gradient-10);}.cls-13{fill:url(#linear-gradient-11);}</style><linearGradient id="linear-gradient" x1="164.57" y1="21.3" x2="164.57" y2="46" gradientTransform="matrix(-0.95, 0, 0, 1, 201.81, 0)" gradientUnits="userSpaceOnUse"><stop offset="0" stop-color="#99e8ff"/><stop offset="0.28" stop-color="#96e6ff"/><stop offset="0.48" stop-color="#8de0ff"/><stop offset="0.65" stop-color="#7dd5ff"/><stop offset="0.81" stop-color="#67c6ff"/><stop offset="0.96" stop-color="#4bb3ff"/><stop offset="1" stop-color="#42adff"/></linearGradient><linearGradient id="linear-gradient-2" x1="138.17" y1="29.38" x2="138.17" y2="38.09" gradientTransform="matrix(-0.95, 0, 0, 1, 201.81, 0)" gradientUnits="userSpaceOnUse"><stop offset="0" stop-color="#fff"/><stop offset="1"/></linearGradient><linearGradient id="linear-gradient-3" x1="172.87" y1="25.44" x2="172.87" y2="34.15" xlink:href="#linear-gradient-2"/><linearGradient id="linear-gradient-4" x1="188.97" y1="25" x2="188.97" y2="34.99" xlink:href="#linear-gradient-2"/><linearGradient id="linear-gradient-5" x1="153.34" y1="16.34" x2="153.96" y2="30.23" xlink:href="#linear-gradient-2"/><radialGradient id="radial-gradient" cx="43.56" cy="27.35" r="29.5" gradientTransform="matrix(0.95, -0.31, 0.31, 0.95, -12.76, 18.33)" gradientUnits="userSpaceOnUse"><stop offset="0" stop-color="#ffca00"/><stop offset="0.41" stop-color="#ffc800"/><stop offset="0.6" stop-color="#ffc000"/><stop offset="0.75" stop-color="#ffb400"/><stop offset="0.87" stop-color="#fea200"/><stop offset="0.97" stop-color="#fe8a00"/><stop offset="1" stop-color="#fe8300"/></radialGradient><linearGradient id="linear-gradient-6" x1="21.95" y1="-11.02" x2="41.08" y2="50.12" gradientTransform="matrix(0.95, -0.31, 0.31, 0.95, -12.76, 18.33)" gradientUnits="userSpaceOnUse"><stop offset="0" stop-color="#e0cc4e"/><stop offset="0.14" stop-color="#ac9d3c"/><stop offset="0.3" stop-color="#786d2a"/><stop offset="0.46" stop-color="#4d461b"/><stop offset="0.61" stop-color="#2b280f"/><stop offset="0.75" stop-color="#131207"/><stop offset="0.89" stop-color="#050502"/><stop offset="1"/></linearGradient><linearGradient id="linear-gradient-7" x1="31.83" y1="46.89" x2="31.83" y2="69.96" gradientTransform="matrix(1, 0, 0, 1, 0, 0)" xlink:href="#linear-gradient"/><linearGradient id="linear-gradient-8" x1="7.17" y1="54.43" x2="7.17" y2="62.57" gradientTransform="matrix(1, 0, 0, 1, 0, 0)" xlink:href="#linear-gradient-2"/><linearGradient id="linear-gradient-9" x1="39.59" y1="50.75" x2="39.59" y2="58.89" gradientTransform="matrix(1, 0, 0, 1, 0, 0)" xlink:href="#linear-gradient-2"/><linearGradient id="linear-gradient-10" x1="54.63" y1="50.35" x2="54.63" y2="59.67" gradientTransform="matrix(1, 0, 0, 1, 0, 0)" xlink:href="#linear-gradient-2"/><linearGradient id="linear-gradient-11" x1="21.34" y1="42.26" x2="21.92" y2="55.23" gradientTransform="matrix(1, 0, 0, 1, 0, 0)" xlink:href="#linear-gradient-2"/></defs><title>Asset 8</title><g class="cls-1"><g id="Layer_2" data-name="Layer 2"><g id="weather"><path class="cls-2" d="M65.68,29.61c8-15.28-23-22.14-20-.38C44.4,22,31.83,21.5,31,30.24,31.83,18,6,21,16.53,38.5c5.08,8.43,55.15,10.21,60.58.72C82.22,30.31,71.25,22,65.68,29.61Z"/><path class="cls-3" d="M76.57,34.1c.67,7-8.78,6.23-8,1.21.44-2.75,4.56-2.92,4,.33-1.08-2.4-3.68,1.41-.37,1.35,2.06,0,2.37-2.64,1.16-4-3-3.46-7.93.61-5.28,5.38A4.73,4.73,0,0,1,65.9,33c.63-2.36,2.33-3.66,3.84-3.73C71.67,29.19,76.16,29.7,76.57,34.1Z"/><path class="cls-4" d="M43.76,30.16c.67,7-8.77,6.23-8,1.21.43-2.75,4.55-2.91,4,.33-1.07-2.39-3.66,1.41-.36,1.34,2.06,0,2.37-2.62,1.16-4-3-3.45-7.92.61-5.28,5.38a4.74,4.74,0,0,1-2.21-5.32c.64-2.37,2.34-3.66,3.85-3.73C38.86,25.25,43.35,25.76,43.76,30.16Z"/><path class="cls-5" d="M29.33,30.41c.76,8-10.07,7.14-9.16,1.39.49-3.15,5.22-3.34,4.58.38-1.24-2.75-4.21,1.61-.42,1.54,2.36,0,2.72-3,1.33-4.63-3.4-4-9.08.7-6.05,6.17a5.44,5.44,0,0,1-2.53-6.1c.73-2.71,2.67-4.19,4.41-4.28C23.7,24.78,28.84,25.37,29.33,30.41Z"/><path class="cls-6" d="M64.65,23.82c1,10.56-13.27,9.4-12.08,1.83.65-4.16,6.88-4.4,6,.5-1.64-3.62-5.55,2.13-.55,2,3.11-.05,3.58-4,1.75-6.1-4.49-5.22-12,.92-8,8.13-3.23-1.67-4-5.53-3.33-8,1-3.58,3.52-5.53,5.81-5.64C57.23,16.4,64,17.17,64.65,23.82Z"/><path class="cls-7" d="M56.21,44.74A24.54,24.54,0,0,1,36.59,0,30.37,30.37,0,1,0,68.73,35.44,24.45,24.45,0,0,1,56.21,44.74Z"/><path class="cls-8" d="M46.93,55.2A26.21,26.21,0,0,1,22.31,9.92,28.69,28.69,0,0,0,57.45,48.71,26.07,26.07,0,0,1,46.93,55.2Z"/><path class="cls-9" d="M12.61,54.65C4.64,40.38,35.34,34,32.36,54.3c1.27-6.74,13.69-7.22,14.47.94C46.05,43.78,71.58,46.61,61.16,63c-5,7.88-54.49,9.54-59.85.68C-3.74,55.31,7.1,47.56,12.61,54.65Z"/><path class="cls-10" d="M1.84,58.84c-.66,6.53,8.67,5.82,7.89,1.14-.42-2.57-4.5-2.73-3.95.3,1.07-2.24,3.63,1.32.36,1.26-2,0-2.34-2.46-1.15-3.77,2.94-3.23,7.84.57,5.22,5a4.3,4.3,0,0,0,2.18-5,4.47,4.47,0,0,0-3.8-3.49C6.69,54.26,2.25,54.73,1.84,58.84Z"/><path class="cls-11" d="M34.25,55.16c-.66,6.53,8.67,5.82,7.89,1.13-.42-2.56-4.49-2.71-3.94.31,1.06-2.23,3.62,1.32.36,1.26-2,0-2.35-2.45-1.15-3.77,2.93-3.23,7.83.57,5.21,5a4.3,4.3,0,0,0,2.18-5A4.42,4.42,0,0,0,41,50.66C39.1,50.58,34.67,51.05,34.25,55.16Z"/><path class="cls-12" d="M48.52,55.4c-.75,7.48,9.94,6.66,9,1.3-.49-3-5.16-3.12-4.53.35,1.22-2.57,4.16,1.51.41,1.44-2.33,0-2.68-2.82-1.31-4.32,3.36-3.7,9,.65,6,5.75a4.94,4.94,0,0,0,2.5-5.69,5.1,5.1,0,0,0-4.36-4C54.08,50.14,49,50.69,48.52,55.4Z"/><path class="cls-13" d="M13.62,49.24C12.63,59.11,26.73,58,25.55,51c-.64-3.89-6.8-4.11-6,.46,1.62-3.38,5.48,2,.55,1.91-3.08-.06-3.54-3.72-1.73-5.7,4.42-4.88,11.82.86,7.87,7.59a6.52,6.52,0,0,0,3.3-7.51c-.95-3.34-3.48-5.17-5.74-5.27C21,42.31,14.25,43,13.62,49.24Z"/></g></g></g></svg>