<svg xmlns="http://www.w3.org/2000/svg" xmlns:xlink="http://www.w3.org/1999/xlink" viewBox="0 0 77.36 68.5"><defs><style>.cls-1{isolation:isolate;}.cls-2{fill:url(#linear-gradient);}.cls-10,.cls-11,.cls-12,.cls-3,.cls-4,.cls-5,.cls-6,.cls-8,.cls-9{mix-blend-mode:screen;}.cls-3{fill:url(#linear-gradient-2);}.cls-4{fill:url(#linear-gradient-3);}.cls-5{fill:url(#linear-gradient-4);}.cls-6{fill:url(#linear-gradient-5);}.cls-7{fill:url(#linear-gradient-6);}.cls-8{fill:url(#linear-gradient-7);}.cls-9{fill:url(#linear-gradient-8);}.cls-10{fill:url(#linear-gradient-9);}.cls-11{fill:url(#linear-gradient-10);}.cls-12{fill:url(#linear-gradient-11);}.cls-13{fill:url(#linear-gradient-12);}.cls-14{fill:url(#linear-gradient-13);}.cls-15{fill:url(#linear-gradient-14);}.cls-16{fill:url(#linear-gradient-16);}.cls-17{fill:url(#linear-gradient-17);}.cls-18{fill:url(#linear-gradient-18);}.cls-19{fill:url(#linear-gradient-20);}.cls-20{fill:url(#linear-gradient-21);}.cls-21{fill:url(#linear-gradient-22);}.cls-22{fill:url(#linear-gradient-24);}.cls-23{fill:url(#linear-gradient-25);}.cls-24{fill:url(#linear-gradient-26);}.cls-25{fill:url(#linear-gradient-28);}.cls-26{fill:url(#linear-gradient-29);}.cls-27{fill:url(#linear-gradient-30);}</style><linearGradient id="linear-gradient" x1="56.72" y1="5.44" x2="56.72" y2="23.31" gradientTransform="translate(-4.97 -4.67) rotate(4.09)" gradientUnits="userSpaceOnUse"><stop offset="0" stop-color="#c7f6ff"/><stop offset="0.19" stop-color="#c3f4ff"/><stop offset="0.37" stop-color="#b7edff"/><stop offset="0.56" stop-color="#a3e2ff"/><stop offset="0.75" stop-color="#87d2ff"/><stop offset="0.93" stop-color="#63beff"/><stop offset="1" stop-color="#54b5ff"/></linearGradient><linearGradient id="linear-gradient-2" x1="71.59" y1="-27.08" x2="71.59" y2="-20.03" gradientTransform="translate(-4.59 11.51) rotate(20.06)" gradientUnits="userSpaceOnUse"><stop offset="0" stop-color="#fff"/><stop offset="1"/></linearGradient><linearGradient id="linear-gradient-3" x1="34.95" y1="-14.28" x2="34.95" y2="-7.23" xlink:href="#linear-gradient-2"/><linearGradient id="linear-gradient-4" x1="57.67" y1="-31.23" x2="57.67" y2="-21.9" xlink:href="#linear-gradient-2"/><linearGradient id="linear-gradient-5" x1="44.21" y1="-23.52" x2="44.21" y2="-14.19" xlink:href="#linear-gradient-2"/><linearGradient id="linear-gradient-6" x1="37.22" y1="17.31" x2="37.22" y2="40.89" gradientUnits="userSpaceOnUse"><stop offset="0" stop-color="#99e8ff"/><stop offset="0.28" stop-color="#96e6ff"/><stop offset="0.48" stop-color="#8de0ff"/><stop offset="0.65" stop-color="#7dd5ff"/><stop offset="0.81" stop-color="#67c6ff"/><stop offset="0.96" stop-color="#4bb3ff"/><stop offset="1" stop-color="#42adff"/></linearGradient><linearGradient id="linear-gradient-7" x1="7.03" y1="24.54" x2="7.03" y2="31.95" gradientTransform="matrix(1, 0, 0, 1, 0, 0)" xlink:href="#linear-gradient-2"/><linearGradient id="linear-gradient-8" x1="37.6" y1="21.2" x2="37.6" y2="28.6" gradientTransform="matrix(1, 0, 0, 1, 0, 0)" xlink:href="#linear-gradient-2"/><linearGradient id="linear-gradient-9" x1="66.27" y1="-11.13" x2="66.27" y2="-3.52" gradientTransform="translate(0.93 16.25) rotate(15.96)" xlink:href="#linear-gradient-2"/><linearGradient id="linear-gradient-10" x1="52.61" y1="17.86" x2="52.61" y2="26.35" gradientTransform="matrix(1, 0, 0, 1, 0, 0)" xlink:href="#linear-gradient-2"/><linearGradient id="linear-gradient-11" x1="20.41" y1="13.46" x2="20.94" y2="25.27" gradientTransform="matrix(1, 0, 0, 1, 0, 0)" xlink:href="#linear-gradient-2"/><linearGradient id="linear-gradient-12" x1="23.11" y1="45.76" x2="23.11" y2="54.81" xlink:href="#linear-gradient-6"/><linearGradient id="linear-gradient-13" x1="23.11" y1="45.76" x2="23.11" y2="54.81" xlink:href="#linear-gradient-6"/><linearGradient id="linear-gradient-14" x1="23.11" y1="45.76" x2="23.11" y2="54.81" xlink:href="#linear-gradient-6"/><linearGradient id="linear-gradient-16" x1="41.02" y1="45.76" x2="41.02" y2="54.81" xlink:href="#linear-gradient-6"/><linearGradient id="linear-gradient-17" x1="41.02" y1="45.76" x2="41.02" y2="54.81" xlink:href="#linear-gradient-6"/><linearGradient id="linear-gradient-18" x1="41.02" y1="45.76" x2="41.02" y2="54.81" xlink:href="#linear-gradient-6"/><linearGradient id="linear-gradient-20" x1="58.94" y1="45.76" x2="58.94" y2="54.81" xlink:href="#linear-gradient-6"/><linearGradient id="linear-gradient-21" x1="58.94" y1="45.76" x2="58.94" y2="54.81" xlink:href="#linear-gradient-6"/><linearGradient id="linear-gradient-22" x1="58.94" y1="45.76" x2="58.94" y2="54.81" xlink:href="#linear-gradient-6"/><linearGradient id="linear-gradient-24" x1="31.29" y1="59.48" x2="31.29" y2="68.53" xlink:href="#linear-gradient-6"/><linearGradient id="linear-gradient-25" x1="31.29" y1="59.48" x2="31.29" y2="68.52" xlink:href="#linear-gradient-6"/><linearGradient id="linear-gradient-26" x1="31.29" y1="59.48" x2="31.29" y2="68.53" xlink:href="#linear-gradient-6"/><linearGradient id="linear-gradient-28" x1="49.21" y1="59.48" x2="49.21" y2="68.53" xlink:href="#linear-gradient-6"/><linearGradient id="linear-gradient-29" x1="49.21" y1="59.48" x2="49.21" y2="68.52" xlink:href="#linear-gradient-6"/><linearGradient id="linear-gradient-30" x1="49.21" y1="59.48" x2="49.21" y2="68.53" xlink:href="#linear-gradient-6"/></defs><title>Asset 12</title><g class="cls-1"><g id="Layer_2" data-name="Layer 2"><g id="weather"><path class="cls-2" d="M25.68,19.22c-7.22-9.06,6.23-14.68,10.14-9.38-1.24-6.33,11-11,14.86-2.38-1-9.41,17-11.42,14.59,2.82,8.1-6.45,18.87,7.45,6.42,13.14C65.21,26.39,32.44,27.7,25.68,19.22Z"/><path class="cls-3" d="M66.5,12.72c-2.29,5,5,7.25,5.74,3.27.37-2.18-2.71-3.52-3.11-.94,1.42-1.47,2.41,2.14-.07,1.12-1.55-.64-1.13-2.67.15-3.36,3.13-1.71,5.84,2.8,2.62,5.58a3.54,3.54,0,0,0,3-3.33,4.61,4.61,0,0,0-2.51-4.35A4.11,4.11,0,0,0,66.5,12.72Z"/><path class="cls-4" d="M27.69,12.18c-2.29,5,5.06,7.25,5.74,3.27.38-2.18-2.7-3.52-3.11-.93,1.43-1.48,2.42,2.13-.07,1.11C28.7,15,29.13,13,30.4,12.27c3.14-1.71,5.85,2.8,2.63,5.58a3.56,3.56,0,0,0,3-3.33,4.62,4.62,0,0,0-2.51-4.35A4.12,4.12,0,0,0,27.69,12.18Z"/><path class="cls-5" d="M53.09,4.74c-3,6.65,6.69,9.58,7.59,4.32.5-2.89-3.57-4.67-4.11-1.24,1.89-1.95,3.2,2.83-.1,1.47-2-.84-1.48-3.53.21-4.45,4.14-2.25,7.74,3.71,3.47,7.39a4.7,4.7,0,0,0,4-4.4,6.11,6.11,0,0,0-3.32-5.76C59,1.11,55,.54,53.09,4.74Z"/><path class="cls-6" d="M37.8,7.36c-3,6.66,6.69,9.59,7.6,4.32.5-2.88-3.58-4.66-4.12-1.23,1.89-1.95,3.2,2.82-.09,1.47-2-.84-1.48-3.53.2-4.45,4.15-2.25,7.74,3.71,3.48,7.39a4.7,4.7,0,0,0,4-4.4A6.11,6.11,0,0,0,45.56,4.7,5.45,5.45,0,0,0,37.8,7.36Z"/><path class="cls-7" d="M12.16,24.74C4.65,11.75,29,4.68,31.49,21.81c2.69-5.2,12.12-4.43,13,3.47-2-13.09,18.22-12.2,16.21-.94,3.55-8.11,20.5,0,10.86,9.4C63.62,41.43,7.63,44.32,1.09,33-3.37,25.22,7,18.29,12.16,24.74Z"/><path class="cls-8" d="M2,28.56c-.62,5.94,8.18,5.29,7.45,1-.4-2.34-4.24-2.48-3.73.28,1-2,3.42,1.19.34,1.14C4.14,31,3.85,28.77,5,27.58c2.77-2.94,7.39.52,4.92,4.57a3.85,3.85,0,0,0,2-4.52,4.15,4.15,0,0,0-3.58-3.18C6.58,24.38,2.39,24.81,2,28.56Z"/><path class="cls-9" d="M32.58,25.21c-.63,5.94,8.17,5.29,7.44,1-.4-2.34-4.24-2.48-3.73.28,1-2,3.42,1.2.35,1.14-1.93,0-2.22-2.23-1.09-3.43,2.77-2.94,7.39.52,4.92,4.57a3.87,3.87,0,0,0,2.06-4.52,4.16,4.16,0,0,0-3.59-3.17C37.15,21,33,21.47,32.58,25.21Z"/><path class="cls-10" d="M61.7,26.47c-2.23,5.55,6.41,7.34,6.87,3,.26-2.36-3.39-3.55-3.66-.76,1.53-1.68,3,2.09,0,1.2-1.84-.56-1.51-2.76-.1-3.6,3.47-2.06,7,2.53,3.47,5.75a3.86,3.86,0,0,0,3.22-3.78,4.93,4.93,0,0,0-3.24-4.45C66.62,23.2,63.1,23,61.7,26.47Z"/><path class="cls-11" d="M46.85,22.46c-.71,6.81,9.38,6.06,8.53,1.18-.46-2.68-4.86-2.84-4.27.32,1.15-2.33,3.92,1.37.39,1.31-2.2,0-2.53-2.56-1.24-3.93,3.17-3.37,8.46.59,5.64,5.24a4.45,4.45,0,0,0,2.36-5.19,4.76,4.76,0,0,0-4.11-3.63C52.09,17.68,47.3,18.17,46.85,22.46Z"/><path class="cls-12" d="M13.12,19.82c-.94,9,12.36,8,11.25,1.55-.61-3.53-6.41-3.74-5.63.43,1.52-3.08,5.17,1.81.51,1.73-2.9-.05-3.34-3.38-1.63-5.19,4.18-4.44,11.15.79,7.43,6.91a5.86,5.86,0,0,0,3.11-6.84,6.28,6.28,0,0,0-5.42-4.79C20,13.51,13.71,14.16,13.12,19.82Z"/><path class="cls-13" d="M23.11,54.79a.54.54,0,0,1-.54-.54V46.48a.54.54,0,1,1,1.07,0v7.77A.54.54,0,0,1,23.11,54.79Z"/><path class="cls-14" d="M27,50.9H19.22a.54.54,0,1,1,0-1.07H27a.54.54,0,0,1,0,1.07Z"/><path class="cls-15" d="M20.36,53.65a.52.52,0,0,1-.38-.16.54.54,0,0,1,0-.76l5.5-5.49a.54.54,0,0,1,.76,0,.53.53,0,0,1,0,.75l-5.5,5.5A.52.52,0,0,1,20.36,53.65Z"/><path class="cls-15" d="M25.86,53.65a.51.51,0,0,1-.38-.16L20,48a.53.53,0,0,1,0-.75.54.54,0,0,1,.76,0l5.5,5.49a.54.54,0,0,1,0,.76A.52.52,0,0,1,25.86,53.65Z"/><path class="cls-16" d="M41,54.79a.54.54,0,0,1-.53-.54V46.48a.54.54,0,1,1,1.07,0v7.77A.54.54,0,0,1,41,54.79Z"/><path class="cls-17" d="M44.91,50.9H37.14a.54.54,0,1,1,0-1.07h7.77a.54.54,0,1,1,0,1.07Z"/><path class="cls-18" d="M38.28,53.65a.51.51,0,0,1-.38-.16.54.54,0,0,1,0-.76l5.49-5.49a.54.54,0,0,1,.76,0,.53.53,0,0,1,0,.75l-5.5,5.5A.5.5,0,0,1,38.28,53.65Z"/><path class="cls-18" d="M43.77,53.65a.54.54,0,0,1-.38-.16L37.9,48a.53.53,0,0,1,.75-.75l5.5,5.49a.54.54,0,0,1,0,.76A.51.51,0,0,1,43.77,53.65Z"/><path class="cls-19" d="M58.94,54.79a.54.54,0,0,1-.54-.54V46.48a.54.54,0,1,1,1.08,0v7.77A.54.54,0,0,1,58.94,54.79Z"/><path class="cls-20" d="M62.83,50.9H55.05a.54.54,0,0,1,0-1.07h7.78a.54.54,0,0,1,0,1.07Z"/><path class="cls-21" d="M56.19,53.65a.52.52,0,0,1-.38-.16.54.54,0,0,1,0-.76l5.5-5.49a.54.54,0,0,1,.76,0,.53.53,0,0,1,0,.75l-5.5,5.5A.51.51,0,0,1,56.19,53.65Z"/><path class="cls-21" d="M61.69,53.65a.51.51,0,0,1-.38-.16L55.81,48a.53.53,0,0,1,0-.75.54.54,0,0,1,.76,0l5.5,5.49a.54.54,0,0,1,0,.76A.52.52,0,0,1,61.69,53.65Z"/><path class="cls-22" d="M31.29,68.5a.53.53,0,0,1-.53-.53V60.19a.54.54,0,1,1,1.07,0V68A.54.54,0,0,1,31.29,68.5Z"/><path class="cls-23" d="M35.18,64.61H27.41a.54.54,0,1,1,0-1.07h7.77a.54.54,0,1,1,0,1.07Z"/><path class="cls-24" d="M28.54,67.36a.57.57,0,0,1-.38-.15.54.54,0,0,1,0-.76l5.5-5.5a.54.54,0,1,1,.76.76l-5.5,5.5A.54.54,0,0,1,28.54,67.36Z"/><path class="cls-24" d="M34,67.36a.55.55,0,0,1-.38-.15l-5.5-5.5a.54.54,0,1,1,.76-.76l5.5,5.5a.54.54,0,0,1,0,.76A.55.55,0,0,1,34,67.36Z"/><path class="cls-25" d="M49.21,68.5a.54.54,0,0,1-.54-.53V60.19a.54.54,0,0,1,.54-.54.53.53,0,0,1,.53.54V68A.53.53,0,0,1,49.21,68.5Z"/><path class="cls-26" d="M53.09,64.61H45.32a.54.54,0,1,1,0-1.07h7.77a.54.54,0,1,1,0,1.07Z"/><path class="cls-27" d="M46.46,67.36a.53.53,0,0,1-.38-.91l5.5-5.5a.54.54,0,1,1,.76.76l-5.5,5.5A.55.55,0,0,1,46.46,67.36Z"/><path class="cls-27" d="M52,67.36a.54.54,0,0,1-.38-.15l-5.5-5.5a.54.54,0,1,1,.76-.76l5.5,5.5a.54.54,0,0,1,0,.76A.57.57,0,0,1,52,67.36Z"/></g></g></g></svg>