<svg xmlns="http://www.w3.org/2000/svg" xmlns:xlink="http://www.w3.org/1999/xlink" viewBox="0 0 76.44 61.35"><defs><style>.cls-1{fill:url(#linear-gradient);}.cls-2{fill:url(#linear-gradient-2);}.cls-3{fill:url(#linear-gradient-3);}.cls-4{fill:url(#linear-gradient-4);}.cls-5{fill:url(#linear-gradient-5);}.cls-6{fill:url(#linear-gradient-6);}.cls-7{fill:url(#linear-gradient-7);}.cls-8{fill:url(#linear-gradient-8);}.cls-9{fill:url(#linear-gradient-9);}.cls-10{fill:url(#linear-gradient-11);}.cls-11{fill:url(#linear-gradient-12);}.cls-12{fill:url(#linear-gradient-13);}.cls-13{fill:url(#linear-gradient-15);}.cls-14{fill:url(#linear-gradient-16);}.cls-15{fill:url(#linear-gradient-17);}.cls-16{fill:url(#linear-gradient-19);}.cls-17{fill:url(#linear-gradient-20);}.cls-18{fill:url(#linear-gradient-21);}.cls-19{fill:url(#linear-gradient-23);}.cls-20{fill:url(#linear-gradient-24);}.cls-21{fill:url(#linear-gradient-25);}.cls-22{fill:url(#linear-gradient-27);}.cls-23{fill:url(#linear-gradient-28);}.cls-24{fill:url(#linear-gradient-29);}.cls-25{fill:url(#linear-gradient-31);}.cls-26{fill:url(#linear-gradient-32);}.cls-27{fill:url(#linear-gradient-33);}</style><linearGradient id="linear-gradient" x1="21.4" y1="21.97" x2="10.33" y2="39.58" gradientUnits="userSpaceOnUse"><stop offset="0" stop-color="#9cf2ff"/><stop offset="0.4" stop-color="#9af0ff"/><stop offset="0.63" stop-color="#92e8ff"/><stop offset="0.81" stop-color="#84dbff"/><stop offset="0.97" stop-color="#70c9ff"/><stop offset="1" stop-color="#6bc4ff"/></linearGradient><linearGradient id="linear-gradient-2" x1="3.01" y1="9.26" x2="29.18" y2="46.05" gradientUnits="userSpaceOnUse"><stop offset="0" stop-color="#99e8ff"/><stop offset="0.28" stop-color="#96e6ff"/><stop offset="0.48" stop-color="#8de0ff"/><stop offset="0.65" stop-color="#7dd5ff"/><stop offset="0.81" stop-color="#67c6ff"/><stop offset="0.96" stop-color="#4bb3ff"/><stop offset="1" stop-color="#42adff"/></linearGradient><linearGradient id="linear-gradient-3" x1="52.41" y1="24.1" x2="70.31" y2="49.26" gradientTransform="translate(-10.52 17.09) rotate(-14.34)" xlink:href="#linear-gradient-2"/><linearGradient id="linear-gradient-4" x1="51.78" y1="36.86" x2="72.55" y2="45.25" gradientTransform="translate(-10.52 17.09) rotate(-14.34)" xlink:href="#linear-gradient"/><linearGradient id="linear-gradient-5" x1="-0.61" y1="10.5" x2="67.33" y2="26.55" xlink:href="#linear-gradient"/><linearGradient id="linear-gradient-6" x1="15.44" y1="-10.94" x2="56.66" y2="46.99" xlink:href="#linear-gradient-2"/><linearGradient id="linear-gradient-7" x1="54.92" y1="14.72" x2="54.92" y2="23.7" xlink:href="#linear-gradient-2"/><linearGradient id="linear-gradient-8" x1="54.92" y1="14.73" x2="54.92" y2="23.69" xlink:href="#linear-gradient-2"/><linearGradient id="linear-gradient-9" x1="54.92" y1="14.72" x2="54.92" y2="23.7" xlink:href="#linear-gradient-2"/><linearGradient id="linear-gradient-11" x1="37.57" y1="39.52" x2="37.57" y2="48.49" xlink:href="#linear-gradient-2"/><linearGradient id="linear-gradient-12" x1="37.57" y1="39.52" x2="37.57" y2="48.49" xlink:href="#linear-gradient-2"/><linearGradient id="linear-gradient-13" x1="37.57" y1="39.52" x2="37.57" y2="48.49" xlink:href="#linear-gradient-2"/><linearGradient id="linear-gradient-15" x1="55.09" y1="49.92" x2="55.09" y2="58.89" xlink:href="#linear-gradient-2"/><linearGradient id="linear-gradient-16" x1="55.09" y1="49.92" x2="55.09" y2="58.89" xlink:href="#linear-gradient-2"/><linearGradient id="linear-gradient-17" x1="55.09" y1="49.92" x2="55.09" y2="58.89" xlink:href="#linear-gradient-2"/><linearGradient id="linear-gradient-19" x1="35.09" y1="1.06" x2="35.09" y2="10.03" xlink:href="#linear-gradient-2"/><linearGradient id="linear-gradient-20" x1="35.09" y1="1.06" x2="35.09" y2="10.03" xlink:href="#linear-gradient-2"/><linearGradient id="linear-gradient-21" x1="35.09" y1="1.06" x2="35.09" y2="10.03" xlink:href="#linear-gradient-2"/><linearGradient id="linear-gradient-23" x1="39.71" y1="55.43" x2="39.71" y2="61.36" xlink:href="#linear-gradient-2"/><linearGradient id="linear-gradient-24" x1="39.71" y1="55.43" x2="39.71" y2="61.36" xlink:href="#linear-gradient-2"/><linearGradient id="linear-gradient-25" x1="39.71" y1="55.43" x2="39.71" y2="61.36" xlink:href="#linear-gradient-2"/><linearGradient id="linear-gradient-27" x1="51.12" y1="-0.12" x2="51.12" y2="5.82" xlink:href="#linear-gradient-2"/><linearGradient id="linear-gradient-28" x1="51.12" y1="-0.12" x2="51.12" y2="5.82" xlink:href="#linear-gradient-2"/><linearGradient id="linear-gradient-29" x1="51.12" y1="-0.12" x2="51.12" y2="5.82" xlink:href="#linear-gradient-2"/><linearGradient id="linear-gradient-31" x1="70.96" y1="52.95" x2="70.96" y2="58.88" xlink:href="#linear-gradient-2"/><linearGradient id="linear-gradient-32" x1="70.96" y1="52.95" x2="70.96" y2="58.88" xlink:href="#linear-gradient-2"/><linearGradient id="linear-gradient-33" x1="70.96" y1="52.95" x2="70.96" y2="58.88" xlink:href="#linear-gradient-2"/></defs><title>Asset 2</title><g id="Layer_2" data-name="Layer 2"><g id="weather"><path class="cls-1" d="M20.93,44.26C32.07,43.73,31.16,29.87,25.14,24c-5.3-5.17-14.34-7.58-23.22-.18,20.76-12.16,29,13.06,21.48,15.65-7.09,2.43-9.49-5.73-4.68-9.45l-.59.19C11,35.34,15.1,44.54,20.93,44.26Z"/><path class="cls-2" d="M31.56,29.16C27.66,18.58,12,12.26,1.61,24l.31-.18c8.88-7.4,17.92-5,23.22.18,6,5.87,6.93,19.73-4.21,20.26-5.83.28-9.9-8.92-2.8-14-9.81,3.33-9.22,12.54-2.49,16.16C27.81,52.93,35.57,40,31.56,29.16Z"/><path class="cls-3" d="M60,46.21C54.26,45.36,49.53,40.15,47.8,38c-.16-.18-.33-.36-.48-.56C54.85,51.67,74,52,72.52,38.55,71,44.55,66.2,47.13,60,46.21Z"/><path class="cls-4" d="M60,46.21c6.21.92,11-1.66,12.53-7.66v-.1c-3.48,7.61-18,7-24.72-.45C49.53,40.15,54.26,45.36,60,46.21Z"/><path class="cls-5" d="M16.92,13.26c12.33.22,21.8,11.27,32.89,17.94,11.43,6.87,21.76.8,22.46-6.91C73,16.79,65.62,11.23,59,10.87l-.13,0c10.4,2.55,8,13.56,3.43,16.53C49.24,36,20.06-10.94,0,24.58l.79-.94C3,20.22,8.59,13.12,16.92,13.26Z"/><path class="cls-6" d="M59,10.87c6.61.36,13.95,5.92,13.26,13.42-.7,7.71-11,13.78-22.46,6.91C38.72,24.53,29.25,13.48,16.92,13.26,8.59,13.12,3,20.22.79,23.64,7.69,15.55,13.92,13.46,21.13,16,35,20.85,45.25,39.91,61.44,38.62,85.64,36.69,77.38,5.12,59,10.87Z"/><path class="cls-7" d="M54.92,23.67a.53.53,0,0,1-.53-.53V15.43a.54.54,0,0,1,1.07,0v7.71A.54.54,0,0,1,54.92,23.67Z"/><path class="cls-8" d="M58.78,19.82H51.07a.54.54,0,0,1,0-1.07h7.71a.54.54,0,0,1,0,1.07Z"/><path class="cls-9" d="M52.2,22.54a.53.53,0,0,1-.38-.91l5.45-5.45a.54.54,0,0,1,.76,0,.54.54,0,0,1,0,.75l-5.46,5.46A.53.53,0,0,1,52.2,22.54Z"/><path class="cls-9" d="M57.65,22.54a.55.55,0,0,1-.38-.15l-5.45-5.46a.53.53,0,0,1,.75-.75L58,21.63a.53.53,0,0,1-.38.91Z"/><path class="cls-10" d="M37.56,48.47a.53.53,0,0,1-.53-.53V40.23a.54.54,0,1,1,1.07,0v7.71A.54.54,0,0,1,37.56,48.47Z"/><path class="cls-11" d="M41.42,44.61H33.71a.53.53,0,0,1-.53-.53.53.53,0,0,1,.53-.53h7.71a.53.53,0,0,1,.53.53A.52.52,0,0,1,41.42,44.61Z"/><path class="cls-12" d="M34.84,47.34a.55.55,0,0,1-.38-.15.54.54,0,0,1,0-.76L39.92,41a.53.53,0,0,1,.75.75l-5.46,5.46A.53.53,0,0,1,34.84,47.34Z"/><path class="cls-12" d="M40.29,47.34a.53.53,0,0,1-.37-.15l-5.46-5.46a.53.53,0,0,1,.75-.75l5.46,5.45a.54.54,0,0,1,0,.76A.55.55,0,0,1,40.29,47.34Z"/><path class="cls-13" d="M55.09,58.87a.53.53,0,0,1-.53-.53V50.63a.53.53,0,0,1,.53-.54.54.54,0,0,1,.53.54v7.71A.53.53,0,0,1,55.09,58.87Z"/><path class="cls-14" d="M58.94,55H51.23a.53.53,0,0,1-.53-.53.53.53,0,0,1,.53-.53h7.71a.54.54,0,0,1,.54.53A.53.53,0,0,1,58.94,55Z"/><path class="cls-15" d="M52.36,57.74a.51.51,0,0,1-.37-.15.54.54,0,0,1,0-.76l5.45-5.45a.53.53,0,0,1,.75.75l-5.45,5.46A.55.55,0,0,1,52.36,57.74Z"/><path class="cls-15" d="M57.81,57.74a.53.53,0,0,1-.37-.15L52,52.13a.53.53,0,0,1,.75-.75l5.45,5.45a.53.53,0,0,1-.38.91Z"/><path class="cls-16" d="M35.09,10a.54.54,0,0,1-.54-.53V1.76a.54.54,0,0,1,1.07,0V9.48A.53.53,0,0,1,35.09,10Z"/><path class="cls-17" d="M38.94,6.15H31.23a.53.53,0,0,1-.53-.53.53.53,0,0,1,.53-.53h7.71a.53.53,0,0,1,.53.53A.52.52,0,0,1,38.94,6.15Z"/><path class="cls-18" d="M32.36,8.88A.52.52,0,0,1,32,8.72.54.54,0,0,1,32,8l5.46-5.45a.53.53,0,0,1,.75.75L32.74,8.72A.52.52,0,0,1,32.36,8.88Z"/><path class="cls-18" d="M37.81,8.88a.5.5,0,0,1-.37-.16L32,3.27a.54.54,0,0,1,0-.75.54.54,0,0,1,.76,0L38.19,8a.54.54,0,0,1-.38.91Z"/><path class="cls-19" d="M39.71,61.35a.35.35,0,0,1-.35-.35V55.9a.35.35,0,0,1,.35-.35.34.34,0,0,1,.35.35V61A.35.35,0,0,1,39.71,61.35Z"/><path class="cls-20" d="M42.26,58.8H37.17a.36.36,0,1,1,0-.71h5.09a.36.36,0,0,1,0,.71Z"/><path class="cls-21" d="M37.91,60.6a.35.35,0,0,1-.25-.1.37.37,0,0,1,0-.5l3.61-3.6a.35.35,0,1,1,.49.49l-3.6,3.61A.35.35,0,0,1,37.91,60.6Z"/><path class="cls-21" d="M41.51,60.6a.33.33,0,0,1-.24-.1l-3.61-3.61a.36.36,0,0,1,0-.49.35.35,0,0,1,.5,0l3.6,3.6a.35.35,0,0,1,0,.5A.33.33,0,0,1,41.51,60.6Z"/><path class="cls-22" d="M51.12,5.8a.35.35,0,0,1-.35-.35V.35a.35.35,0,1,1,.7,0v5.1A.35.35,0,0,1,51.12,5.8Z"/><path class="cls-23" d="M53.67,3.25h-5.1a.35.35,0,1,1,0-.7h5.1a.35.35,0,0,1,0,.7Z"/><path class="cls-24" d="M49.32,5.05a.35.35,0,0,1-.25-.6l3.6-3.6a.35.35,0,0,1,.5.5L49.57,5A.35.35,0,0,1,49.32,5.05Z"/><path class="cls-24" d="M52.92,5.05a.35.35,0,0,1-.25-.1l-3.6-3.6a.35.35,0,0,1,.5-.5l3.6,3.6a.35.35,0,0,1-.25.6Z"/><path class="cls-25" d="M71,58.87a.35.35,0,0,1-.35-.35v-5.1a.34.34,0,0,1,.35-.35.35.35,0,0,1,.35.35v5.1A.35.35,0,0,1,71,58.87Z"/><path class="cls-26" d="M73.51,56.32h-5.1a.35.35,0,0,1-.35-.35.34.34,0,0,1,.35-.35h5.1a.35.35,0,0,1,.35.35A.35.35,0,0,1,73.51,56.32Z"/><path class="cls-27" d="M69.16,58.12a.35.35,0,0,1-.25-.6l3.6-3.6a.35.35,0,0,1,.5,0,.34.34,0,0,1,0,.49L69.41,58A.35.35,0,0,1,69.16,58.12Z"/><path class="cls-27" d="M72.76,58.12a.35.35,0,0,1-.25-.1l-3.6-3.61a.34.34,0,0,1,0-.49.35.35,0,0,1,.5,0l3.6,3.6a.35.35,0,0,1-.25.6Z"/></g></g></svg>