<svg xmlns="http://www.w3.org/2000/svg" xmlns:xlink="http://www.w3.org/1999/xlink" viewBox="0 0 63.93 33.16"><defs><style>.cls-1{isolation:isolate;}.cls-2{fill:url(#linear-gradient);}.cls-3,.cls-4,.cls-5,.cls-6{mix-blend-mode:screen;}.cls-3{fill:url(#linear-gradient-2);}.cls-4{fill:url(#linear-gradient-3);}.cls-5{fill:url(#linear-gradient-4);}.cls-6{fill:url(#linear-gradient-5);}</style><linearGradient id="linear-gradient" x1="-30.22" y1="6.47" x2="-30.22" y2="30.89" gradientTransform="matrix(-1, 0, 0, 1, 1.75, 0)" gradientUnits="userSpaceOnUse"><stop offset="0" stop-color="#cff9ff"/><stop offset="0.21" stop-color="#c3f6ff"/><stop offset="0.58" stop-color="#a5edff"/><stop offset="1" stop-color="#7ae0ff"/></linearGradient><linearGradient id="linear-gradient-2" x1="-55.57" y1="13.53" x2="-55.57" y2="21.72" gradientTransform="matrix(-1, 0, 0, 1, 1.75, 0)" gradientUnits="userSpaceOnUse"><stop offset="0" stop-color="#fff"/><stop offset="1"/></linearGradient><linearGradient id="linear-gradient-3" x1="-25.71" y1="8.83" x2="-25.71" y2="17.02" xlink:href="#linear-gradient-2"/><linearGradient id="linear-gradient-4" x1="-7.08" y1="8.92" x2="-7.08" y2="18.3" xlink:href="#linear-gradient-2"/><linearGradient id="linear-gradient-5" x1="-41.56" y1="2.04" x2="-40.98" y2="15.09" xlink:href="#linear-gradient-2"/></defs><title>Asset 18</title><g class="cls-1"><g id="Layer_2" data-name="Layer 2"><g id="weather"><path class="cls-2" d="M51.56,14.19C59.57-.16,31.73-8,34.73,12.4,33.46,5.62,21,5.14,20.18,13.34c-.7-14.23-29-7.23-17.37,12.77,4.74,8.11,31.26,9.11,51,3.58C72.56,24.44,61.31,5.69,51.56,14.19Z"/><path class="cls-3" d="M62.68,18c.66,6.57-8.73,5.85-7.94,1.14.43-2.59,4.53-2.74,4,.31-1.07-2.25-3.65,1.32-.36,1.26,2,0,2.36-2.47,1.15-3.79-3-3.25-7.87.57-5.24,5.05a4.35,4.35,0,0,1-2.2-5,4.47,4.47,0,0,1,3.83-3.5C57.8,13.36,62.27,13.83,62.68,18Z"/><path class="cls-4" d="M32.82,13.27c.67,6.57-8.72,5.85-7.93,1.13.43-2.58,4.52-2.73,4,.31C27.79,12.47,25.21,16,28.5,16c2.05,0,2.35-2.47,1.15-3.79-2.95-3.25-7.88.57-5.25,5a4.34,4.34,0,0,1-2.19-5A4.47,4.47,0,0,1,26,8.74C28,8.65,32.41,9.13,32.82,13.27Z"/><path class="cls-5" d="M15,14c.76,7.53-10,6.71-9.1,1.31.5-3,5.19-3.14,4.56.35C9.2,13.08,6.25,17.18,10,17.11c2.35,0,2.7-2.83,1.32-4.34-3.37-3.72-9,.65-6,5.79a5,5,0,0,1-2.51-5.73,5.12,5.12,0,0,1,4.38-4C9.38,8.72,14.5,9.27,15,14Z"/><path class="cls-6" d="M51.08,9.06c1,9.93-13.19,8.84-12,1.72.64-3.91,6.83-4.13,6,.47-1.62-3.4-5.51,2-.54,1.91,3.09-.05,3.55-3.73,1.73-5.73-4.45-4.91-11.89.87-7.92,7.63A6.54,6.54,0,0,1,35,7.51c1-3.36,3.5-5.2,5.77-5.3C43.7,2.09,50.45,2.81,51.08,9.06Z"/></g></g></g></svg>