<svg xmlns="http://www.w3.org/2000/svg" xmlns:xlink="http://www.w3.org/1999/xlink" viewBox="0 0 77.36 70.52"><defs><style>.cls-1{isolation:isolate;}.cls-2{fill:url(#linear-gradient);}.cls-10,.cls-11,.cls-12,.cls-14,.cls-16,.cls-18,.cls-20,.cls-22,.cls-3,.cls-4,.cls-5,.cls-6,.cls-8,.cls-9{mix-blend-mode:screen;}.cls-3{fill:url(#linear-gradient-2);}.cls-4{fill:url(#linear-gradient-3);}.cls-5{fill:url(#linear-gradient-4);}.cls-6{fill:url(#linear-gradient-5);}.cls-7{fill:url(#linear-gradient-6);}.cls-8{fill:url(#linear-gradient-7);}.cls-9{fill:url(#linear-gradient-8);}.cls-10{fill:url(#linear-gradient-9);}.cls-11{fill:url(#linear-gradient-10);}.cls-12{fill:url(#linear-gradient-11);}.cls-13{fill:url(#linear-gradient-12);}.cls-14{fill:url(#linear-gradient-13);}.cls-15{fill:url(#linear-gradient-14);}.cls-16{fill:url(#linear-gradient-15);}.cls-17{fill:url(#linear-gradient-16);}.cls-18{fill:url(#linear-gradient-17);}.cls-19{fill:url(#linear-gradient-18);}.cls-20{fill:url(#linear-gradient-19);}.cls-21{fill:url(#linear-gradient-20);}.cls-22{fill:url(#linear-gradient-21);}</style><linearGradient id="linear-gradient" x1="57.51" y1="27.88" x2="57.51" y2="45.76" gradientTransform="translate(-4.15 -27.11) rotate(4.09)" gradientUnits="userSpaceOnUse"><stop offset="0" stop-color="#c7f6ff"/><stop offset="0.19" stop-color="#c3f4ff"/><stop offset="0.37" stop-color="#b7edff"/><stop offset="0.56" stop-color="#a3e2ff"/><stop offset="0.75" stop-color="#87d2ff"/><stop offset="0.93" stop-color="#63beff"/><stop offset="1" stop-color="#54b5ff"/></linearGradient><linearGradient id="linear-gradient-2" x1="90.63" y1="80.71" x2="90.63" y2="87.75" gradientTransform="translate(14.49 -96.26) rotate(20.06)" gradientUnits="userSpaceOnUse"><stop offset="0" stop-color="#fff"/><stop offset="1"/></linearGradient><linearGradient id="linear-gradient-3" x1="53.99" y1="93.51" x2="53.99" y2="100.55" xlink:href="#linear-gradient-2"/><linearGradient id="linear-gradient-4" x1="76.71" y1="76.56" x2="76.71" y2="85.88" xlink:href="#linear-gradient-2"/><linearGradient id="linear-gradient-5" x1="63.25" y1="84.26" x2="63.25" y2="93.59" xlink:href="#linear-gradient-2"/><linearGradient id="linear-gradient-6" x1="37.22" y1="17.31" x2="37.22" y2="40.89" gradientUnits="userSpaceOnUse"><stop offset="0" stop-color="#99e8ff"/><stop offset="0.28" stop-color="#96e6ff"/><stop offset="0.48" stop-color="#8de0ff"/><stop offset="0.65" stop-color="#7dd5ff"/><stop offset="0.81" stop-color="#67c6ff"/><stop offset="0.96" stop-color="#4bb3ff"/><stop offset="1" stop-color="#42adff"/></linearGradient><linearGradient id="linear-gradient-7" x1="7.03" y1="24.54" x2="7.03" y2="31.95" gradientTransform="matrix(1, 0, 0, 1, 0, 0)" xlink:href="#linear-gradient-2"/><linearGradient id="linear-gradient-8" x1="37.6" y1="21.2" x2="37.6" y2="28.6" gradientTransform="matrix(1, 0, 0, 1, 0, 0)" xlink:href="#linear-gradient-2"/><linearGradient id="linear-gradient-9" x1="78.38" y1="75.31" x2="78.38" y2="82.92" gradientTransform="translate(13.06 -70.18) rotate(15.96)" xlink:href="#linear-gradient-2"/><linearGradient id="linear-gradient-10" x1="52.61" y1="17.86" x2="52.61" y2="26.35" gradientTransform="matrix(1, 0, 0, 1, 0, 0)" xlink:href="#linear-gradient-2"/><linearGradient id="linear-gradient-11" x1="20.41" y1="13.46" x2="20.94" y2="25.27" gradientTransform="matrix(1, 0, 0, 1, 0, 0)" xlink:href="#linear-gradient-2"/><linearGradient id="linear-gradient-12" x1="21.66" y1="46.76" x2="21.66" y2="59.03" gradientTransform="matrix(0.95, 0.3, -0.3, 0.95, 18.22, -6.11)" xlink:href="#linear-gradient-6"/><linearGradient id="linear-gradient-13" x1="20.81" y1="58.93" x2="22.38" y2="54.13" gradientTransform="matrix(0.95, 0.3, -0.3, 0.95, 18.22, -6.11)" xlink:href="#linear-gradient-2"/><linearGradient id="linear-gradient-14" x1="29.94" y1="58.92" x2="29.94" y2="70.17" gradientTransform="matrix(0.95, 0.3, -0.3, 0.95, 18.22, -6.11)" xlink:href="#linear-gradient-6"/><linearGradient id="linear-gradient-15" x1="29.16" y1="70.09" x2="30.6" y2="65.68" gradientTransform="matrix(0.95, 0.3, -0.3, 0.95, 18.22, -6.11)" xlink:href="#linear-gradient-2"/><linearGradient id="linear-gradient-16" x1="44.73" y1="54.22" x2="44.73" y2="65.47" gradientTransform="matrix(0.95, 0.3, -0.3, 0.95, 18.22, -6.11)" xlink:href="#linear-gradient-6"/><linearGradient id="linear-gradient-17" x1="43.95" y1="65.38" x2="45.39" y2="60.98" gradientTransform="matrix(0.95, 0.3, -0.3, 0.95, 18.22, -6.11)" xlink:href="#linear-gradient-2"/><linearGradient id="linear-gradient-18" x1="35.84" y1="42.7" x2="35.84" y2="53.95" gradientTransform="matrix(0.95, 0.3, -0.3, 0.95, 18.22, -6.11)" xlink:href="#linear-gradient-6"/><linearGradient id="linear-gradient-19" x1="35.06" y1="53.86" x2="36.5" y2="49.45" gradientTransform="matrix(0.95, 0.3, -0.3, 0.95, 18.22, -6.11)" xlink:href="#linear-gradient-2"/><linearGradient id="linear-gradient-20" x1="49.63" y1="38.31" x2="49.63" y2="49.56" gradientTransform="matrix(0.95, 0.3, -0.3, 0.95, 18.22, -6.11)" xlink:href="#linear-gradient-6"/><linearGradient id="linear-gradient-21" x1="48.85" y1="49.48" x2="50.3" y2="45.07" gradientTransform="matrix(0.95, 0.3, -0.3, 0.95, 18.22, -6.11)" xlink:href="#linear-gradient-2"/></defs><title>Asset 13</title><g class="cls-1"><g id="Layer_2" data-name="Layer 2"><g id="weather"><path class="cls-2" d="M25.68,19.22c-7.22-9.06,6.23-14.68,10.14-9.38-1.24-6.33,11-11,14.85-2.38-1-9.41,17-11.42,14.6,2.82,8.1-6.45,18.87,7.45,6.42,13.14C65.21,26.39,32.44,27.7,25.68,19.22Z"/><path class="cls-3" d="M66.5,12.72c-2.29,5,5,7.25,5.74,3.27.37-2.18-2.71-3.52-3.11-.94,1.42-1.47,2.41,2.14-.07,1.12-1.55-.64-1.12-2.67.15-3.36,3.13-1.71,5.84,2.8,2.62,5.58a3.54,3.54,0,0,0,3-3.33,4.61,4.61,0,0,0-2.51-4.35A4.11,4.11,0,0,0,66.5,12.72Z"/><path class="cls-4" d="M27.69,12.18c-2.29,5,5.06,7.25,5.74,3.27.38-2.18-2.7-3.52-3.11-.93,1.43-1.48,2.42,2.13-.07,1.11C28.7,15,29.13,13,30.4,12.27c3.14-1.71,5.85,2.8,2.63,5.58a3.56,3.56,0,0,0,3-3.33,4.62,4.62,0,0,0-2.51-4.35A4.12,4.12,0,0,0,27.69,12.18Z"/><path class="cls-5" d="M53.09,4.74c-3,6.65,6.69,9.58,7.59,4.32.5-2.89-3.58-4.67-4.11-1.24,1.89-1.95,3.2,2.83-.1,1.47-2-.84-1.48-3.53.21-4.45,4.14-2.25,7.73,3.71,3.47,7.39a4.7,4.7,0,0,0,4-4.4,6.12,6.12,0,0,0-3.32-5.76C59,1.11,55,.54,53.09,4.74Z"/><path class="cls-6" d="M37.8,7.36c-3,6.66,6.69,9.59,7.6,4.32.5-2.88-3.58-4.66-4.12-1.23,1.89-1.95,3.2,2.82-.09,1.47-2-.84-1.48-3.53.21-4.45,4.14-2.25,7.73,3.71,3.47,7.39a4.7,4.7,0,0,0,4-4.4A6.11,6.11,0,0,0,45.56,4.7,5.45,5.45,0,0,0,37.8,7.36Z"/><path class="cls-7" d="M12.16,24.74C4.65,11.75,29,4.68,31.49,21.81c2.7-5.2,12.12-4.43,13,3.47-2-13.09,18.22-12.2,16.2-.94,3.56-8.11,20.51,0,10.87,9.4C63.62,41.43,7.63,44.32,1.09,33-3.37,25.22,7,18.29,12.16,24.74Z"/><path class="cls-8" d="M2,28.56c-.62,5.94,8.18,5.29,7.45,1-.4-2.34-4.24-2.48-3.73.28,1-2,3.42,1.19.34,1.14C4.14,31,3.85,28.77,5,27.58c2.77-2.94,7.39.52,4.92,4.57a3.85,3.85,0,0,0,2-4.52,4.16,4.16,0,0,0-3.58-3.18C6.58,24.38,2.39,24.81,2,28.56Z"/><path class="cls-9" d="M32.58,25.21c-.63,5.94,8.17,5.29,7.44,1-.4-2.34-4.24-2.48-3.73.28,1-2,3.42,1.2.35,1.14-1.93,0-2.22-2.23-1.09-3.43,2.77-2.94,7.39.52,4.92,4.57a3.87,3.87,0,0,0,2.06-4.52,4.16,4.16,0,0,0-3.59-3.17C37.15,21,33,21.47,32.58,25.21Z"/><path class="cls-10" d="M61.7,26.47c-2.23,5.55,6.41,7.34,6.88,3,.25-2.36-3.41-3.55-3.67-.76,1.53-1.68,3,2.09,0,1.2-1.83-.56-1.5-2.76-.09-3.6,3.47-2.06,7,2.53,3.47,5.75a3.86,3.86,0,0,0,3.22-3.78,4.93,4.93,0,0,0-3.24-4.45C66.62,23.2,63.1,23,61.7,26.47Z"/><path class="cls-11" d="M46.85,22.46c-.71,6.81,9.38,6.06,8.53,1.18-.46-2.68-4.86-2.84-4.27.32,1.15-2.33,3.92,1.37.39,1.31-2.2,0-2.53-2.56-1.24-3.93,3.17-3.37,8.47.59,5.64,5.24a4.45,4.45,0,0,0,2.36-5.19,4.76,4.76,0,0,0-4.11-3.63C52.09,17.68,47.3,18.17,46.85,22.46Z"/><path class="cls-12" d="M13.12,19.82c-.94,9,12.36,8,11.25,1.55-.61-3.53-6.41-3.74-5.63.43,1.52-3.08,5.17,1.81.51,1.73-2.9-.05-3.34-3.38-1.63-5.19,4.18-4.44,11.15.79,7.43,6.91a5.86,5.86,0,0,0,3.11-6.84,6.28,6.28,0,0,0-5.42-4.79C20,13.51,13.71,14.16,13.12,19.82Z"/><path class="cls-13" d="M24.54,55.37a3,3,0,1,1-5.68-1.8c.5-1.57,5.35-8.91,5.9-8.73S25,53.81,24.54,55.37Z"/><path class="cls-14" d="M23.57,55.15a2.07,2.07,0,0,1-3.95-1.25c.35-1.09,2.09-3.51,3.18-3.16S23.91,54.06,23.57,55.15Z"/><path class="cls-15" d="M28.76,68.61A2.73,2.73,0,1,1,23.55,67c.45-1.44,4.9-8.17,5.41-8S29.22,67.17,28.76,68.61Z"/><path class="cls-16" d="M27.87,68.41a1.9,1.9,0,0,1-3.62-1.15c.31-1,1.91-3.22,2.91-2.9S28.18,67.41,27.87,68.41Z"/><path class="cls-17" d="M44.28,68.61A2.73,2.73,0,1,1,39.07,67c.45-1.44,4.9-8.17,5.41-8S44.74,67.17,44.28,68.61Z"/><path class="cls-18" d="M43.39,68.41a1.9,1.9,0,0,1-3.62-1.15c.32-1,1.91-3.22,2.91-2.9S43.71,67.41,43.39,68.41Z"/><path class="cls-19" d="M39.29,54.94a2.73,2.73,0,0,1-5.21-1.66c.46-1.44,4.91-8.17,5.41-8S39.75,53.5,39.29,54.94Z"/><path class="cls-20" d="M38.4,54.73a1.9,1.9,0,1,1-3.62-1.15c.32-1,1.92-3.22,2.92-2.9S38.72,53.73,38.4,54.73Z"/><path class="cls-21" d="M53.77,54.94a2.73,2.73,0,0,1-5.21-1.66c.46-1.44,4.91-8.17,5.41-8S54.23,53.5,53.77,54.94Z"/><path class="cls-22" d="M52.88,54.73a1.9,1.9,0,1,1-3.62-1.15c.32-1,1.91-3.22,2.91-2.9S53.2,53.73,52.88,54.73Z"/></g></g></g></svg>