<svg xmlns="http://www.w3.org/2000/svg" xmlns:xlink="http://www.w3.org/1999/xlink" viewBox="0 0 70.18 79.71"><defs><style>.cls-1{isolation:isolate;}.cls-2{fill:url(#linear-gradient);}.cls-11,.cls-13,.cls-15,.cls-16,.cls-17,.cls-18,.cls-3,.cls-5,.cls-7,.cls-9{mix-blend-mode:screen;}.cls-3{fill:url(#linear-gradient-2);}.cls-4{fill:url(#linear-gradient-3);}.cls-5{fill:url(#linear-gradient-4);}.cls-6{fill:url(#linear-gradient-5);}.cls-7{fill:url(#linear-gradient-6);}.cls-8{fill:url(#linear-gradient-7);}.cls-9{fill:url(#linear-gradient-8);}.cls-10{fill:url(#linear-gradient-9);}.cls-11{fill:url(#linear-gradient-10);}.cls-12{fill:url(#radial-gradient);}.cls-13{fill:url(#linear-gradient-11);}.cls-14{fill:url(#linear-gradient-12);}.cls-15{fill:url(#linear-gradient-13);}.cls-16{fill:url(#linear-gradient-14);}.cls-17{fill:url(#linear-gradient-15);}.cls-18{fill:url(#linear-gradient-16);}</style><linearGradient id="linear-gradient" x1="44.62" y1="-12.51" x2="44.62" y2="-1" gradientTransform="matrix(0.95, 0.3, -0.3, 0.95, -22.84, 54.18)" gradientUnits="userSpaceOnUse"><stop offset="0" stop-color="#99e8ff"/><stop offset="0.28" stop-color="#96e6ff"/><stop offset="0.48" stop-color="#8de0ff"/><stop offset="0.65" stop-color="#7dd5ff"/><stop offset="0.81" stop-color="#67c6ff"/><stop offset="0.96" stop-color="#4bb3ff"/><stop offset="1" stop-color="#42adff"/></linearGradient><linearGradient id="linear-gradient-2" x1="43.82" y1="-1.09" x2="45.29" y2="-5.6" gradientTransform="matrix(0.95, 0.3, -0.3, 0.95, -22.84, 54.18)" gradientUnits="userSpaceOnUse"><stop offset="0" stop-color="#fff"/><stop offset="1"/></linearGradient><linearGradient id="linear-gradient-3" x1="52.38" y1="-1.1" x2="52.38" y2="9.46" xlink:href="#linear-gradient"/><linearGradient id="linear-gradient-4" x1="51.65" y1="9.38" x2="53.01" y2="5.24" xlink:href="#linear-gradient-2"/><linearGradient id="linear-gradient-5" x1="66.27" y1="-5.51" x2="66.27" y2="5.05" xlink:href="#linear-gradient"/><linearGradient id="linear-gradient-6" x1="65.54" y1="4.97" x2="66.89" y2="0.83" xlink:href="#linear-gradient-2"/><linearGradient id="linear-gradient-7" x1="57.92" y1="-16.33" x2="57.92" y2="-5.77" xlink:href="#linear-gradient"/><linearGradient id="linear-gradient-8" x1="57.19" y1="-5.85" x2="58.54" y2="-9.98" xlink:href="#linear-gradient-2"/><linearGradient id="linear-gradient-9" x1="70.87" y1="-20.44" x2="70.87" y2="-9.88" xlink:href="#linear-gradient"/><linearGradient id="linear-gradient-10" x1="70.14" y1="-9.96" x2="71.49" y2="-14.1" xlink:href="#linear-gradient-2"/><radialGradient id="radial-gradient" cx="37.69" cy="55.83" r="25.22" gradientTransform="matrix(0.95, -0.31, 0.31, 0.95, -20.97, -15.05)" gradientUnits="userSpaceOnUse"><stop offset="0" stop-color="#ffca00"/><stop offset="0.41" stop-color="#ffc800"/><stop offset="0.6" stop-color="#ffc000"/><stop offset="0.75" stop-color="#ffb400"/><stop offset="0.87" stop-color="#fea200"/><stop offset="0.97" stop-color="#fe8a00"/><stop offset="1" stop-color="#fe8300"/></radialGradient><linearGradient id="linear-gradient-11" x1="19.21" y1="23.03" x2="35.56" y2="75.3" gradientTransform="matrix(0.95, -0.31, 0.31, 0.95, -20.97, -15.05)" gradientUnits="userSpaceOnUse"><stop offset="0" stop-color="#e0cc4e"/><stop offset="0.14" stop-color="#ac9d3c"/><stop offset="0.3" stop-color="#786d2a"/><stop offset="0.46" stop-color="#4d461b"/><stop offset="0.61" stop-color="#2b280f"/><stop offset="0.75" stop-color="#131207"/><stop offset="0.89" stop-color="#050502"/><stop offset="1"/></linearGradient><linearGradient id="linear-gradient-12" x1="35.09" y1="27.77" x2="35.09" y2="53.21" gradientTransform="matrix(1, 0, 0, 1, 0, 0)" xlink:href="#linear-gradient"/><linearGradient id="linear-gradient-13" x1="7.9" y1="36.09" x2="7.9" y2="45.06" gradientTransform="matrix(1, 0, 0, 1, 0, 0)" xlink:href="#linear-gradient-2"/><linearGradient id="linear-gradient-14" x1="43.64" y1="32.04" x2="43.64" y2="41.01" gradientTransform="matrix(1, 0, 0, 1, 0, 0)" xlink:href="#linear-gradient-2"/><linearGradient id="linear-gradient-15" x1="60.23" y1="31.59" x2="60.23" y2="41.87" gradientTransform="matrix(1, 0, 0, 1, 0, 0)" xlink:href="#linear-gradient-2"/><linearGradient id="linear-gradient-16" x1="23.53" y1="22.67" x2="24.17" y2="36.97" gradientTransform="matrix(1, 0, 0, 1, 0, 0)" xlink:href="#linear-gradient-2"/></defs><title>Asset 7</title><g class="cls-1"><g id="Layer_2" data-name="Layer 2"><g id="weather"><path class="cls-2" d="M23.32,65.5A2.8,2.8,0,1,1,18,63.8c.47-1.47,5-8.36,5.54-8.19S23.79,64,23.32,65.5Z"/><path class="cls-3" d="M22.41,65.29a1.95,1.95,0,0,1-3.71-1.18c.33-1,2-3.29,3-3S22.73,64.27,22.41,65.29Z"/><path class="cls-4" d="M27.28,77.92a2.57,2.57,0,0,1-4.9-1.55C22.81,75,27,68.7,27.47,68.85S27.71,76.57,27.28,77.92Z"/><path class="cls-5" d="M26.44,77.73A1.78,1.78,0,1,1,23,76.65c.3-.94,1.8-3,2.74-2.72S26.74,76.79,26.44,77.73Z"/><path class="cls-6" d="M41.85,77.92A2.57,2.57,0,0,1,37,76.37C37.38,75,41.56,68.7,42,68.85S42.27,76.57,41.85,77.92Z"/><path class="cls-7" d="M41,77.73a1.78,1.78,0,1,1-3.4-1.08c.3-.94,1.8-3,2.74-2.72S41.31,76.79,41,77.73Z"/><path class="cls-8" d="M37.16,65.09a2.57,2.57,0,0,1-4.89-1.56c.43-1.35,4.61-7.66,5.08-7.52S37.59,63.73,37.16,65.09Z"/><path class="cls-9" d="M36.33,64.89a1.78,1.78,0,1,1-3.4-1.08c.3-.93,1.8-3,2.74-2.72S36.63,64,36.33,64.89Z"/><path class="cls-10" d="M50.75,65.09a2.57,2.57,0,0,1-4.89-1.56c.43-1.35,4.61-7.66,5.08-7.52S51.18,63.73,50.75,65.09Z"/><path class="cls-11" d="M49.92,64.89a1.78,1.78,0,1,1-3.4-1.08c.3-.93,1.79-3,2.73-2.72S50.21,64,49.92,64.89Z"/><path class="cls-12" d="M48.46,38.24A21,21,0,0,1,31.7,0,26,26,0,1,0,59.17,30.3,20.9,20.9,0,0,1,48.46,38.24Z"/><path class="cls-13" d="M40.53,47.19a22.4,22.4,0,0,1-21-38.71,24.52,24.52,0,0,0,30,33.16A22.46,22.46,0,0,1,40.53,47.19Z"/><path class="cls-14" d="M13.9,36.33C5.12,20.6,39,13.54,35.67,36c1.4-7.43,15.09-8,15.95,1-.86-12.62,27.29-9.51,15.81,8.51-5.54,8.68-60.07,10.51-66,.74C-4.12,37.06,7.82,28.52,13.9,36.33Z"/><path class="cls-15" d="M2,41c-.73,7.2,9.56,6.42,8.7,1.26-.47-2.84-5-3-4.36.33,1.18-2.47,4,1.45.4,1.39-2.25,0-2.58-2.71-1.27-4.16,3.24-3.56,8.64.63,5.76,5.54a4.76,4.76,0,0,0,2.4-5.48A4.89,4.89,0,0,0,9.47,36C7.37,35.9,2.48,36.42,2,41Z"/><path class="cls-16" d="M37.76,36.9c-.73,7.2,9.56,6.41,8.7,1.24-.47-2.83-5-3-4.35.34,1.17-2.46,4,1.46.4,1.39-2.25,0-2.59-2.7-1.27-4.16,3.23-3.55,8.63.63,5.75,5.54a4.74,4.74,0,0,0,2.4-5.47,4.89,4.89,0,0,0-4.19-3.85C43.1,31.84,38.21,32.37,37.76,36.9Z"/><path class="cls-17" d="M53.49,37.16c-.83,8.25,11,7.35,10,1.43-.54-3.25-5.68-3.44-5,.39,1.35-2.83,4.58,1.66.46,1.58-2.58,0-3-3.1-1.45-4.76,3.7-4.08,9.89.72,6.59,6.35a5.46,5.46,0,0,0,2.75-6.28c-.79-2.79-2.91-4.32-4.8-4.4C59.62,31.37,54,32,53.49,37.16Z"/><path class="cls-18" d="M15,30.37c-1.09,10.88,14.44,9.68,13.15,1.88-.71-4.28-7.49-4.53-6.58.52,1.77-3.73,6,2.19.6,2.09-3.4-.06-3.9-4.09-1.91-6.28,4.88-5.38,13,1,8.68,8.37a7.17,7.17,0,0,0,3.63-8.28c-1-3.68-3.83-5.7-6.32-5.8C23.1,22.73,15.71,23.52,15,30.37Z"/></g></g></g></svg>