<svg xmlns="http://www.w3.org/2000/svg" xmlns:xlink="http://www.w3.org/1999/xlink" viewBox="0 0 79.68 74.61"><defs><style>.cls-1{isolation:isolate;}.cls-2{fill:url(#radial-gradient);}.cls-3{fill:url(#radial-gradient-2);}.cls-4{fill:url(#radial-gradient-3);}.cls-5{fill:url(#radial-gradient-4);}.cls-6{fill:url(#radial-gradient-5);}.cls-7{fill:url(#radial-gradient-6);}.cls-8{fill:url(#radial-gradient-7);}.cls-9{fill:url(#radial-gradient-8);}.cls-10{fill:url(#radial-gradient-9);}.cls-11{fill:url(#radial-gradient-10);}.cls-12{fill:url(#radial-gradient-11);}.cls-13{fill:url(#radial-gradient-12);}.cls-14{fill:url(#radial-gradient-13);}.cls-15,.cls-17,.cls-18,.cls-19,.cls-20{mix-blend-mode:screen;}.cls-15{fill:url(#linear-gradient);}.cls-16{fill:url(#linear-gradient-2);}.cls-17{fill:url(#linear-gradient-3);}.cls-18{fill:url(#linear-gradient-4);}.cls-19{fill:url(#linear-gradient-5);}.cls-20{fill:url(#linear-gradient-6);}</style><radialGradient id="radial-gradient" cx="31.96" cy="17.81" r="8.73" gradientTransform="translate(6.31 -5.51) rotate(-1.81)" gradientUnits="userSpaceOnUse"><stop offset="0" stop-color="#ffca00"/><stop offset="0.41" stop-color="#ffc800"/><stop offset="0.6" stop-color="#ffc000"/><stop offset="0.75" stop-color="#ffb400"/><stop offset="0.87" stop-color="#fea200"/><stop offset="0.97" stop-color="#fe8a00"/><stop offset="1" stop-color="#fe8300"/></radialGradient><radialGradient id="radial-gradient-2" cx="20.07" cy="22.56" r="9.34" xlink:href="#radial-gradient"/><radialGradient id="radial-gradient-3" cx="8.74" cy="33.37" r="9.45" xlink:href="#radial-gradient"/><radialGradient id="radial-gradient-4" cx="3.72" cy="46.51" r="8.73" xlink:href="#radial-gradient"/><radialGradient id="radial-gradient-5" cx="8.47" cy="58.4" r="9.34" xlink:href="#radial-gradient"/><radialGradient id="radial-gradient-6" cx="19.28" cy="69.74" r="9.44" xlink:href="#radial-gradient"/><radialGradient id="radial-gradient-7" cx="32.42" cy="74.76" r="8.73" xlink:href="#radial-gradient"/><radialGradient id="radial-gradient-8" cx="44.31" cy="70.01" r="9.34" xlink:href="#radial-gradient"/><radialGradient id="radial-gradient-9" cx="55.64" cy="59.2" r="9.45" xlink:href="#radial-gradient"/><radialGradient id="radial-gradient-10" cx="60.66" cy="46.06" r="8.73" xlink:href="#radial-gradient"/><radialGradient id="radial-gradient-11" cx="55.91" cy="34.17" r="9.34" xlink:href="#radial-gradient"/><radialGradient id="radial-gradient-12" cx="45.11" cy="22.83" r="9.45" xlink:href="#radial-gradient"/><radialGradient id="radial-gradient-13" cx="33.65" cy="41.42" r="18.98" gradientTransform="translate(6.31 -5.51) rotate(-1.81)" gradientUnits="userSpaceOnUse"><stop offset="0" stop-color="#ffca00"/><stop offset="0.27" stop-color="#ffc600"/><stop offset="0.53" stop-color="#fb0"/><stop offset="0.78" stop-color="#fea800"/><stop offset="1" stop-color="#fe9000"/></radialGradient><linearGradient id="linear-gradient" x1="33.31" y1="28.15" x2="31.62" y2="44.94" gradientTransform="translate(6.31 -5.51) rotate(-1.81)" gradientUnits="userSpaceOnUse"><stop offset="0" stop-color="#e0cc4e"/><stop offset="0.14" stop-color="#ac9d3c"/><stop offset="0.3" stop-color="#786d2a"/><stop offset="0.46" stop-color="#4d461b"/><stop offset="0.61" stop-color="#2b280f"/><stop offset="0.75" stop-color="#131207"/><stop offset="0.89" stop-color="#050502"/><stop offset="1"/></linearGradient><linearGradient id="linear-gradient-2" x1="31.36" y1="54.45" x2="31.36" y2="75.84" gradientTransform="matrix(1, 0.06, -0.06, 1, 3.65, -2.15)" gradientUnits="userSpaceOnUse"><stop offset="0" stop-color="#99e8ff"/><stop offset="0.28" stop-color="#96e6ff"/><stop offset="0.48" stop-color="#8de0ff"/><stop offset="0.65" stop-color="#7dd5ff"/><stop offset="0.81" stop-color="#67c6ff"/><stop offset="0.96" stop-color="#4bb3ff"/><stop offset="1" stop-color="#42adff"/></linearGradient><linearGradient id="linear-gradient-3" x1="43.82" y1="88.41" x2="43.82" y2="96.47" gradientTransform="translate(44.4 -36.75) rotate(19.5)" gradientUnits="userSpaceOnUse"><stop offset="0" stop-color="#fff"/><stop offset="1"/></linearGradient><linearGradient id="linear-gradient-4" x1="-0.65" y1="103.59" x2="-0.65" y2="111.65" xlink:href="#linear-gradient-3"/><linearGradient id="linear-gradient-5" x1="27.36" y1="83.68" x2="27.36" y2="94.35" xlink:href="#linear-gradient-3"/><linearGradient id="linear-gradient-6" x1="10.81" y1="92.81" x2="10.81" y2="103.48" xlink:href="#linear-gradient-3"/></defs><title>Asset 15</title><g class="cls-1"><g id="Layer_2" data-name="Layer 2"><g id="weather"><path class="cls-2" d="M35.52,22.68s-3.54-4,.28-10.17c2.28-3.66,6-8,3-12.51,4.78,4.34,4.74,8.08,2.52,13.53-1.84,4.52,2.82,8.81,2.82,8.81Z"/><path class="cls-3" d="M27.59,27.18s-5.09-1.73-4.85-8.95c.14-4.31,1.24-9.92-3.62-12.35,6.3,1.37,8.14,4.62,9,10.45.66,4.83,6.85,6.22,6.85,6.22Z"/><path class="cls-4" d="M23,35s-5.27,1.05-8.67-5.33c-2-3.8-3.89-9.2-9.31-8.89,6.14-2,9.36-.06,13,4.59,3,3.85,9,2,9,2Z"/><path class="cls-5" d="M22.89,44.16s-4,3.54-10.18-.28c-3.66-2.27-8-6-12.5-3,4.33-4.77,8.07-4.74,13.52-2.52,4.52,1.84,8.81-2.82,8.81-2.82Z"/><path class="cls-6" d="M27.39,52.1s-1.73,5.08-9,4.84c-4.3-.13-9.91-1.23-12.35,3.62,1.37-6.3,4.62-8.14,10.46-8.94,4.83-.67,6.21-6.85,6.21-6.85Z"/><path class="cls-7" d="M22.14,70.63c1.74-2.5,5.14-3.82,7.78-5.23,6.38-3.41,5.33-8.68,5.33-8.68l-7.68-4s1.9,6.05-2,9c-3.58,2.79-5.52,5.35-5.32,9.19Z"/><path class="cls-8" d="M38.53,66c-.34.84-.62,1.64-.85,2.4,2-.26,4-.51,6-.75.14-.21.27-.42.4-.63,3.82-6.14.28-10.17.28-10.17l-8.66.35S40.37,61.43,38.53,66Z"/><path class="cls-9" d="M51.82,63.15a22.78,22.78,0,0,0,.73,3.51c1.47-.14,2.94-.26,4.41-.38,0-1.7.14-3.45.19-5,.24-7.23-4.85-9-4.85-9L45,56.93S51.16,58.32,51.82,63.15Z"/><path class="cls-10" d="M56.93,44.44s5.27-1,8.68,5.33c2,3.8,3.88,9.2,9.3,8.88-6.14,2-9.36.07-13-4.58-3-3.85-9-2-9-2Z"/><path class="cls-11" d="M57,35.31s4-3.54,10.18.28c3.66,2.28,8,6,12.5,3-4.33,4.77-8.07,4.74-13.52,2.52C61.64,39.32,57.35,44,57.35,44Z"/><path class="cls-12" d="M52.51,27.38s1.72-5.09,9-4.85c4.31.14,9.91,1.24,12.35-3.61-1.36,6.3-4.62,8.14-10.46,8.94-4.83.67-6.21,6.85-6.21,6.85Z"/><path class="cls-13" d="M44.64,22.75s-1-5.26,5.33-8.67c3.8-2,9.2-3.88,8.89-9.31,2,6.14.07,9.37-4.58,13-3.85,3-2,9-2,9Z"/><path class="cls-14" d="M58.92,39.14A19,19,0,1,0,40.54,58.71,19,19,0,0,0,58.92,39.14Z"/><path class="cls-15" d="M52.7,33c-.17-5.63-6.15-10-13.34-9.79s-12.89,5-12.71,10.6,6.15,10,13.34,9.8S52.88,38.64,52.7,33Z"/><path class="cls-16" d="M1.7,69.28c-6.15-7.49,6-14.84,10.89-8.86C11,53.25,25.84,47.83,30.73,57.61,29.32,47,51.36,44.54,48.62,60.71c9.81-7.38,19.67,7.79,7.48,12.18C48,75.81,6.61,75.27,1.7,69.28Z"/><path class="cls-17" d="M49.68,63.66C47,69.38,56,71.84,56.75,67.32c.43-2.47-3.36-4-3.82-1,1.73-1.68,3,2.4-.06,1.26-1.91-.71-1.42-3,.13-3.81,3.8-2,7.19,3.13,3.3,6.3A4.09,4.09,0,0,0,60,66.25a5.24,5.24,0,0,0-3.13-4.91C55.09,60.52,51.39,60.06,49.68,63.66Z"/><path class="cls-18" d="M2.69,63.13C0,68.85,9,71.31,9.76,66.79c.43-2.47-3.36-4-3.82-1,1.73-1.68,3,2.4-.06,1.26C4,66.31,4.46,64,6,63.21c3.8-2,7.2,3.13,3.3,6.31A4.1,4.1,0,0,0,13,65.73a5.21,5.21,0,0,0-3.13-4.92C8.1,60,4.4,59.53,2.69,63.13Z"/><path class="cls-19" d="M33.63,54.51C30,62.07,42,65.33,43,59.35c.56-3.28-4.45-5.26-5.05-1.38,2.28-2.22,4,3.19-.09,1.68-2.53-.94-1.87-4,.17-5,5-2.59,9.52,4.15,4.37,8.35a5.42,5.42,0,0,0,4.83-5,6.9,6.9,0,0,0-4.15-6.5C40.8,50.35,35.9,49.74,33.63,54.51Z"/><path class="cls-20" d="M15,57.6c-3.59,7.56,8.34,10.82,9.36,4.84.57-3.28-4.45-5.26-5.06-1.38,2.29-2.22,4,3.19-.08,1.68-2.53-.94-1.87-4,.18-5.05,5-2.58,9.52,4.15,4.36,8.35a5.42,5.42,0,0,0,4.83-5,6.94,6.94,0,0,0-4.15-6.51C22.15,53.44,17.25,52.83,15,57.6Z"/></g></g></g></svg>