<svg xmlns="http://www.w3.org/2000/svg" xmlns:xlink="http://www.w3.org/1999/xlink" viewBox="0 0 77.36 76.62"><defs><style>.cls-1{isolation:isolate;}.cls-2{fill:url(#linear-gradient);}.cls-10,.cls-11,.cls-12,.cls-3,.cls-4,.cls-5,.cls-6,.cls-8,.cls-9{mix-blend-mode:screen;}.cls-3{fill:url(#linear-gradient-2);}.cls-4{fill:url(#linear-gradient-3);}.cls-5{fill:url(#linear-gradient-4);}.cls-6{fill:url(#linear-gradient-5);}.cls-7{fill:url(#linear-gradient-6);}.cls-8{fill:url(#linear-gradient-7);}.cls-9{fill:url(#linear-gradient-8);}.cls-10{fill:url(#linear-gradient-9);}.cls-11{fill:url(#linear-gradient-10);}.cls-12{fill:url(#linear-gradient-11);}.cls-13{fill:url(#linear-gradient-12);}.cls-14{fill:url(#linear-gradient-13);}.cls-15{fill:url(#linear-gradient-14);}</style><linearGradient id="linear-gradient" x1="57.24" y1="20.37" x2="57.24" y2="38.25" gradientTransform="translate(-4.43 -19.6) rotate(4.09)" gradientUnits="userSpaceOnUse"><stop offset="0" stop-color="#c7f6ff"/><stop offset="0.19" stop-color="#c3f4ff"/><stop offset="0.37" stop-color="#b7edff"/><stop offset="0.56" stop-color="#a3e2ff"/><stop offset="0.75" stop-color="#87d2ff"/><stop offset="0.93" stop-color="#63beff"/><stop offset="1" stop-color="#54b5ff"/></linearGradient><linearGradient id="linear-gradient-2" x1="84.26" y1="44.64" x2="84.26" y2="51.69" gradientTransform="translate(8.11 -60.2) rotate(20.06)" gradientUnits="userSpaceOnUse"><stop offset="0" stop-color="#fff"/><stop offset="1"/></linearGradient><linearGradient id="linear-gradient-3" x1="47.62" y1="57.44" x2="47.62" y2="64.49" xlink:href="#linear-gradient-2"/><linearGradient id="linear-gradient-4" x1="70.34" y1="40.49" x2="70.34" y2="49.82" xlink:href="#linear-gradient-2"/><linearGradient id="linear-gradient-5" x1="56.88" y1="48.2" x2="56.88" y2="57.53" xlink:href="#linear-gradient-2"/><linearGradient id="linear-gradient-6" x1="37.22" y1="17.31" x2="37.22" y2="40.89" gradientUnits="userSpaceOnUse"><stop offset="0" stop-color="#99e8ff"/><stop offset="0.28" stop-color="#96e6ff"/><stop offset="0.48" stop-color="#8de0ff"/><stop offset="0.65" stop-color="#7dd5ff"/><stop offset="0.81" stop-color="#67c6ff"/><stop offset="0.96" stop-color="#4bb3ff"/><stop offset="1" stop-color="#42adff"/></linearGradient><linearGradient id="linear-gradient-7" x1="7.03" y1="24.54" x2="7.03" y2="31.95" gradientTransform="matrix(1, 0, 0, 1, 0, 0)" xlink:href="#linear-gradient-2"/><linearGradient id="linear-gradient-8" x1="37.6" y1="21.2" x2="37.6" y2="28.6" gradientTransform="matrix(1, 0, 0, 1, 0, 0)" xlink:href="#linear-gradient-2"/><linearGradient id="linear-gradient-9" x1="74.32" y1="46.39" x2="74.32" y2="54" gradientTransform="translate(9 -41.26) rotate(15.96)" xlink:href="#linear-gradient-2"/><linearGradient id="linear-gradient-10" x1="52.61" y1="17.86" x2="52.61" y2="26.35" gradientTransform="matrix(1, 0, 0, 1, 0, 0)" xlink:href="#linear-gradient-2"/><linearGradient id="linear-gradient-11" x1="20.41" y1="13.46" x2="20.94" y2="25.27" gradientTransform="matrix(1, 0, 0, 1, 0, 0)" xlink:href="#linear-gradient-2"/><linearGradient id="linear-gradient-12" x1="32.17" y1="71.48" x2="40.31" y2="45.2" gradientUnits="userSpaceOnUse"><stop offset="0" stop-color="#ffd900"/><stop offset="0.2" stop-color="#ffd400"/><stop offset="0.43" stop-color="#ffc700"/><stop offset="0.66" stop-color="#ffb100"/><stop offset="0.9" stop-color="#fe9200"/><stop offset="1" stop-color="#fe8300"/></linearGradient><linearGradient id="linear-gradient-13" x1="23.03" y1="66.6" x2="23.03" y2="43.17" gradientUnits="userSpaceOnUse"><stop offset="0" stop-color="#ffd900"/><stop offset="0.4" stop-color="gold"/><stop offset="0.58" stop-color="#ffcf00"/><stop offset="0.71" stop-color="#ffc300"/><stop offset="0.83" stop-color="#ffb100"/><stop offset="0.93" stop-color="#fe9900"/><stop offset="1" stop-color="#fe8300"/></linearGradient><linearGradient id="linear-gradient-14" x1="53.09" y1="66.6" x2="53.09" y2="43.17" xlink:href="#linear-gradient-13"/></defs><title>Asset 10</title><g class="cls-1"><g id="Layer_2" data-name="Layer 2"><g id="weather"><path class="cls-2" d="M25.68,19.22c-7.22-9.06,6.23-14.68,10.14-9.38-1.24-6.33,11-11,14.85-2.38-1-9.41,17-11.42,14.6,2.82,8.1-6.45,18.87,7.45,6.42,13.14C65.21,26.39,32.44,27.7,25.68,19.22Z"/><path class="cls-3" d="M66.5,12.72c-2.29,5,5,7.25,5.74,3.27.37-2.18-2.71-3.52-3.11-.94,1.42-1.47,2.41,2.14-.07,1.12-1.55-.64-1.13-2.67.15-3.36,3.13-1.71,5.84,2.8,2.62,5.58a3.54,3.54,0,0,0,3-3.33,4.61,4.61,0,0,0-2.51-4.35A4.11,4.11,0,0,0,66.5,12.72Z"/><path class="cls-4" d="M27.69,12.18c-2.29,5,5.06,7.25,5.74,3.27.38-2.18-2.7-3.52-3.11-.93,1.43-1.48,2.42,2.13-.07,1.11C28.7,15,29.13,13,30.4,12.27c3.14-1.71,5.85,2.8,2.63,5.58a3.56,3.56,0,0,0,3-3.33,4.62,4.62,0,0,0-2.51-4.35A4.12,4.12,0,0,0,27.69,12.18Z"/><path class="cls-5" d="M53.09,4.74c-3,6.65,6.69,9.58,7.59,4.32.5-2.89-3.58-4.67-4.11-1.24,1.89-1.95,3.2,2.83-.1,1.47-2-.84-1.48-3.53.2-4.45,4.15-2.25,7.74,3.71,3.48,7.39a4.7,4.7,0,0,0,4-4.4,6.12,6.12,0,0,0-3.32-5.76C59,1.11,55,.54,53.09,4.74Z"/><path class="cls-6" d="M37.8,7.36c-3,6.66,6.69,9.59,7.6,4.32.5-2.88-3.58-4.66-4.12-1.23,1.89-1.95,3.2,2.82-.09,1.47-2-.84-1.48-3.53.21-4.45,4.14-2.25,7.73,3.71,3.46,7.39a4.7,4.7,0,0,0,4-4.4A6.11,6.11,0,0,0,45.56,4.7,5.45,5.45,0,0,0,37.8,7.36Z"/><path class="cls-7" d="M12.16,24.74C4.65,11.75,29,4.68,31.49,21.81c2.7-5.2,12.12-4.43,13,3.47-2-13.09,18.22-12.2,16.2-.94,3.56-8.11,20.51,0,10.87,9.4C63.62,41.43,7.63,44.32,1.09,33-3.37,25.22,7,18.29,12.16,24.74Z"/><path class="cls-8" d="M2,28.56c-.62,5.94,8.18,5.29,7.45,1-.4-2.34-4.24-2.48-3.73.28,1-2,3.42,1.19.34,1.14C4.14,31,3.85,28.77,5,27.58c2.77-2.94,7.39.52,4.92,4.57a3.85,3.85,0,0,0,2-4.52,4.15,4.15,0,0,0-3.58-3.18C6.58,24.38,2.39,24.81,2,28.56Z"/><path class="cls-9" d="M32.58,25.21c-.63,5.94,8.17,5.29,7.44,1-.4-2.34-4.24-2.48-3.73.28,1-2,3.42,1.2.34,1.14-1.92,0-2.21-2.23-1.08-3.43,2.77-2.94,7.39.52,4.92,4.57a3.87,3.87,0,0,0,2.06-4.52,4.16,4.16,0,0,0-3.59-3.17C37.15,21,33,21.47,32.58,25.21Z"/><path class="cls-10" d="M61.7,26.47c-2.23,5.55,6.41,7.34,6.87,3,.26-2.36-3.4-3.55-3.66-.76,1.53-1.68,3,2.09,0,1.2-1.83-.56-1.5-2.76-.09-3.6,3.47-2.06,7,2.53,3.47,5.75a3.86,3.86,0,0,0,3.22-3.78,4.93,4.93,0,0,0-3.24-4.45C66.62,23.2,63.1,23,61.7,26.47Z"/><path class="cls-11" d="M46.85,22.46c-.71,6.81,9.38,6.06,8.53,1.18-.46-2.68-4.86-2.84-4.27.32,1.15-2.33,3.92,1.37.39,1.31-2.2,0-2.53-2.56-1.24-3.93,3.17-3.37,8.46.59,5.64,5.24a4.45,4.45,0,0,0,2.36-5.19,4.76,4.76,0,0,0-4.11-3.63C52.09,17.68,47.3,18.17,46.85,22.46Z"/><path class="cls-12" d="M13.12,19.82c-.94,9,12.36,8,11.25,1.55-.61-3.53-6.41-3.74-5.63.43,1.52-3.08,5.17,1.81.51,1.73-2.9-.05-3.34-3.38-1.63-5.19,4.18-4.44,11.16.79,7.43,6.91a5.86,5.86,0,0,0,3.11-6.84,6.28,6.28,0,0,0-5.42-4.79C20,13.51,13.71,14.16,13.12,19.82Z"/><polygon class="cls-13" points="36.07 43.58 25.52 61.63 35.51 61.63 25.8 76.62 46.9 55.24 36.9 55.24 46.9 43.53 36.07 43.58"/><polygon class="cls-14" points="23.25 43.7 18.27 52.2 22.8 52.2 17.91 61.07 28.16 49.19 23.45 49.19 28.16 43.53 23.25 43.7"/><polygon class="cls-15" points="53.3 43.7 48.33 52.2 52.85 52.2 47.96 61.07 58.21 49.19 53.5 49.19 58.21 43.53 53.3 43.7"/></g></g></g></svg>