<?xml version="1.0" encoding="UTF-8"?>
<svg width="25.718mm" height="26.651mm" version="1.1" viewBox="0 0 25.718 26.651" xmlns="http://www.w3.org/2000/svg" xmlns:cc="http://creativecommons.org/ns#" xmlns:dc="http://purl.org/dc/elements/1.1/" xmlns:rdf="http://www.w3.org/1999/02/22-rdf-syntax-ns#">
 <metadata>
  <rdf:RDF>
   <cc:Work rdf:about="">
    <dc:format>image/svg+xml</dc:format>
    <dc:type rdf:resource="http://purl.org/dc/dcmitype/StillImage"/>
   </cc:Work>
  </rdf:RDF>
 </metadata>
 <rect x="1.3969" y="1.2037" width="22.924" height="24.244" rx="6.0197" ry="6.0197" fill="#b054b2" stroke-linejoin="round" style="paint-order:fill markers stroke"/>
 <path d="m13.661 13.65c1.1447 0.30029 1.9609 0.66176 2.4469 1.0857 0.62681 0.52861 0.92936 1.1535 0.90847 1.8744-0.0209 0.72084-0.35484 1.3096-1.0025 1.7662-0.62687 0.45653-1.5462 0.68461-2.758 0.68461-0.96113 0-1.839-0.19201-2.6329-0.57645-0.77307-0.4085-1.3372-0.84139-1.6924-1.2979-0.29253-0.36042-0.64766-0.56465-1.0656-0.6127-0.39699-0.07209-0.80432 0.08444-1.2221 0.46889-0.35519 0.31237-0.56416 0.72078-0.62684 1.2254-0.041787 0.48058 0.093803 0.91287 0.40721 1.2973 0.68947 0.79289 1.6508 1.454 2.8835 1.9825 1.2537 0.50458 2.6116 0.75652 4.0742 0.75652 1.4835 0 2.7165-0.26416 3.6985-0.79277 1.0029-0.52862 1.7547-1.2373 2.2562-2.1263 0.52234-0.88903 0.78393-1.8863 0.78393-2.9916 0-0.96109-0.19885-1.8019-0.59583-2.5227-0.39693-0.74487-1.0547-1.3936-1.974-1.9463-0.31504-0.19377-0.67168-0.37542-1.0692-0.54555z" fill="#fff" stroke-width=".28373"/>
 <path d="m12.688 4.3076c-1.1098 0-2.1763 0.20423-3.1991 0.6127-1.0227 0.38441-1.8601 0.98493-2.5129 1.8019-0.65281 0.79289-0.97952 1.8024-0.97952 3.0279 0 1.3937 0.4896 2.5707 1.4687 3.5318 0.5579 0.53568 1.3027 0.99615 2.233 1.3823l2.9526-2.2826c-0.80926-0.20431-1.4502-0.40895-1.9214-0.6133-0.60927-0.28834-1.0224-0.60079-1.24-0.93718-0.19584-0.36039-0.29386-0.75671-0.29386-1.1892 0-0.69682 0.32619-1.2257 0.97899-1.5861 0.67454-0.36042 1.4907-0.54079 2.4483-0.54079 0.82688 0 1.5557 0.10823 2.1867 0.32448 0.63106 0.21622 1.2186 0.61304 1.7626 1.1897 0.32643 0.33639 0.72904 0.55225 1.2077 0.64836 0.4787 0.096106 0.89242 0.012328 1.2406-0.25197 0.34817-0.28833 0.53313-0.63687 0.55488-1.0453 0.02176-0.43251-0.12-0.84092-0.42464-1.2254-0.6528-0.88898-1.5338-1.5861-2.6436-2.0907-1.1097-0.50459-2.3829-0.75652-3.8191-0.75652z" fill="#fff" stroke-width=".28956"/>
</svg>
